<?xml version="1.0" encoding="UTF-8"?>
<svg version="1.1" xmlns="http://www.w3.org/2000/svg" width="128" height="128">
<path d="M0 0 C1.08152344 -0.01417969 2.16304688 -0.02835937 3.27734375 -0.04296875 C6.0625 0.1875 6.0625 0.1875 8.0625 2.1875 C7.6875 4.8125 7.6875 4.8125 7.0625 7.1875 C5.4125 7.1875 3.7625 7.1875 2.0625 7.1875 C2.0625 7.8475 2.0625 8.5075 2.0625 9.1875 C2.97128906 9.24357422 2.97128906 9.24357422 3.8984375 9.30078125 C9.54010665 9.74343529 14.56789591 10.76635673 19.93359375 12.56640625 C22.17288076 13.32753382 22.17288076 13.32753382 25.0625 13.1875 C23.0825 11.5375 21.1025 9.8875 19.0625 8.1875 C20.07764734 4.9164697 21.09501736 4.16891865 24.125 2.4375 C31.03761587 -0.16725381 37.17557162 0.93401458 43.91796875 3.4609375 C46.31677219 4.34684737 46.31677219 4.34684737 50 4.75 C53.0625 5.1875 53.0625 5.1875 55.0625 7.1875 C54.6875 9.8125 54.6875 9.8125 54.0625 12.1875 C54.7225 12.1875 55.3825 12.1875 56.0625 12.1875 C60.35241815 18.59863229 62.51990751 24.38811561 62.0625 32.1875 C61.33390761 34.83151137 60.40583514 36.76949675 59.0625 39.1875 C55.47337588 39.1875 54.95392971 38.52313446 52.375 36.1875 C51.75238281 35.630625 51.12976563 35.07375 50.48828125 34.5 C50.01777344 34.066875 49.54726562 33.63375 49.0625 33.1875 C49.46082031 33.94933594 49.85914062 34.71117187 50.26953125 35.49609375 C53.40481889 41.60647184 56.20696693 47.56631725 58.0625 54.1875 C58.32051392 55.10414429 58.32051392 55.10414429 58.58374023 56.03930664 C61.61577296 69.64402668 59.49680128 86.5089372 52.25 98.328125 C51.858125 98.94171875 51.46625 99.5553125 51.0625 100.1875 C50.5675 101.095 50.0725 102.0025 49.5625 102.9375 C48.0625 105.1875 48.0625 105.1875 45.375 107.8125 C42.71369166 109.99325932 42.71369166 109.99325932 43.0625 113.1875 C44.80798697 115.51191407 46.70720138 117.65575771 48.62890625 119.8359375 C50.0625 122.1875 50.0625 122.1875 49.77734375 124.9765625 C49.42349609 126.07097656 49.42349609 126.07097656 49.0625 127.1875 C45.56557233 127.11756145 42.97754299 126.97749373 40.26171875 124.6328125 C36.0625 119.80220764 36.0625 119.80220764 36.0625 117.1875 C35.2890625 117.58582031 34.515625 117.98414062 33.71875 118.39453125 C17.25848333 126.76726591 1.25656837 131.01375308 -17.25 125.9375 C-22.39158192 124.19502733 -27.15373283 121.73044992 -31.9375 119.1875 C-33.26901062 118.51720029 -34.60173584 117.8492827 -35.9375 117.1875 C-36.185 117.744375 -36.4325 118.30125 -36.6875 118.875 C-38.2255785 121.72044523 -39.63824305 123.88824305 -41.9375 126.1875 C-45.6875 127 -45.6875 127 -48.9375 127.1875 C-49.71484375 125.08203125 -49.71484375 125.08203125 -49.9375 122.1875 C-48.53494388 119.85381058 -47.21166479 117.94966881 -45.5 115.875 C-45.06623047 115.32521484 -44.63246094 114.77542969 -44.18554688 114.20898438 C-43.11630496 112.85774459 -42.02864189 111.52111786 -40.9375 110.1875 C-41.52660156 109.94902344 -42.11570312 109.71054688 -42.72265625 109.46484375 C-50.30505921 105.09192352 -55.21406048 93.29760739 -57.50610352 85.17163086 C-58.84361615 79.70550781 -59.29041738 74.49186066 -59.25 68.875 C-59.24436035 68.04613281 -59.2387207 67.21726562 -59.23291016 66.36328125 C-59.00471666 54.75930303 -55.80494264 46.12456162 -49.9375 36.1875 C-49.2583102 34.8605021 -48.5867147 33.52941747 -47.9375 32.1875 C-48.40800781 32.68121094 -48.87851562 33.17492188 -49.36328125 33.68359375 C-49.98589844 34.32425781 -50.60851563 34.96492188 -51.25 35.625 C-51.86488281 36.26308594 -52.47976562 36.90117188 -53.11328125 37.55859375 C-54.9375 39.1875 -54.9375 39.1875 -57.9375 40.1875 C-61.91421903 35.34627684 -62.4412854 31.43443893 -61.9375 25.1875 C-60.35917373 20.04621939 -58.75017133 15.98981081 -54.9375 12.1875 C-54.19363932 9.87761685 -53.51559297 7.54434056 -52.9375 5.1875 C-49.95898438 4.89453125 -49.95898438 4.89453125 -46.98046875 4.6015625 C-44.63761858 4.26084609 -44.63761858 4.26084609 -41.9375 2.1875 C-34.47352457 -0.00778689 -27.76768334 0.70271258 -20.9375 4.1875 C-20.2775 4.5175 -19.6175 4.8475 -18.9375 5.1875 C-19.0625 7.4375 -19.0625 7.4375 -19.9375 10.1875 C-23 12.5 -23 12.5 -25.9375 14.1875 C-24.74125 13.754375 -23.545 13.32125 -22.3125 12.875 C-15.98627728 10.74938917 -9.47177046 9.49807203 -2.9375 8.1875 C-5.4125 7.1975 -5.4125 7.1975 -7.9375 6.1875 C-6.83807901 0.06215447 -6.23046561 0.03704201 0 0 Z M-45.9375 29.1875 C-44.9375 31.1875 -44.9375 31.1875 -44.9375 31.1875 Z " fill="#BC494B" transform="translate(63.9375,-0.1875)"/>
<path d="M0 0 C0.58265625 0.46277344 1.1653125 0.92554688 1.765625 1.40234375 C1.765625 2.06234375 1.765625 2.72234375 1.765625 3.40234375 C2.466875 3.58796875 3.168125 3.77359375 3.890625 3.96484375 C10.83203426 7.43554838 14.3866386 14.71626429 17.765625 21.40234375 C18.36375 22.51609375 18.961875 23.62984375 19.578125 24.77734375 C21.22571984 29.80684379 20.9612163 34.12137869 20.765625 39.40234375 C15.155625 39.40234375 9.545625 39.40234375 3.765625 39.40234375 C3.765625 40.39234375 3.765625 41.38234375 3.765625 42.40234375 C9.375625 42.40234375 14.985625 42.40234375 20.765625 42.40234375 C21.28345916 50.16985609 19.51017413 56.16114492 16.765625 63.40234375 C15.445625 63.40234375 14.125625 63.40234375 12.765625 63.40234375 C12.765625 62.74234375 12.765625 62.08234375 12.765625 61.40234375 C12.20875 61.29921875 11.651875 61.19609375 11.078125 61.08984375 C8.32543085 60.27147522 6.2223097 58.87635457 3.765625 57.40234375 C1.57431966 56.70654921 1.57431966 56.70654921 -0.234375 56.40234375 C2.48167215 59.27654498 2.48167215 59.27654498 5.765625 61.40234375 C5.765625 62.06234375 5.765625 62.72234375 5.765625 63.40234375 C6.52875 63.54671875 7.291875 63.69109375 8.078125 63.83984375 C10.765625 64.40234375 10.765625 64.40234375 13.765625 65.40234375 C12.44548425 71.41631829 9.1957452 74.45007921 4.765625 78.40234375 C3.6828125 79.39234375 3.6828125 79.39234375 2.578125 80.40234375 C0.765625 81.40234375 0.765625 81.40234375 -1.14453125 81.3046875 C-4.24550798 79.9657611 -4.9616947 77.92176585 -6.484375 74.96484375 C-7.26554687 73.48177734 -7.26554687 73.48177734 -8.0625 71.96875 C-9.234375 69.40234375 -9.234375 69.40234375 -9.234375 67.40234375 C-10.224375 67.40234375 -11.214375 67.40234375 -12.234375 67.40234375 C-11.10985773 70.37428225 -10.01143709 72.73675062 -8.234375 75.40234375 C-7.921875 77.96484375 -7.921875 77.96484375 -8.234375 80.40234375 C-11.234375 82.40234375 -11.234375 82.40234375 -15.234375 82.40234375 C-15.234375 83.06234375 -15.234375 83.72234375 -15.234375 84.40234375 C-20.184375 84.89734375 -20.184375 84.89734375 -25.234375 85.40234375 C-26.08110107 76.06078916 -26.44574104 66.78073634 -26.484375 57.40234375 C-26.505 56.11972656 -26.525625 54.83710937 -26.546875 53.515625 C-26.55460937 51.66517578 -26.55460937 51.66517578 -26.5625 49.77734375 C-26.5718457 48.67132813 -26.58119141 47.5653125 -26.59082031 46.42578125 C-26.18845997 43.01288367 -25.25217664 41.15635368 -23.234375 38.40234375 C-21.296875 37.07421875 -21.296875 37.07421875 -19.234375 36.15234375 C-18.55375 35.8378125 -17.873125 35.52328125 -17.171875 35.19921875 C-15.55209263 34.53301794 -13.89593048 33.95619558 -12.234375 33.40234375 C-12.234375 32.74234375 -12.234375 32.08234375 -12.234375 31.40234375 C-8.3234913 27.98937348 -4.24450861 25.16884224 1.015625 24.77734375 C5.23628769 24.35527748 6.76980726 23.30454219 9.765625 20.40234375 C8.445625 20.07234375 7.125625 19.74234375 5.765625 19.40234375 C6.755625 17.75234375 7.745625 16.10234375 8.765625 14.40234375 C7.445625 14.40234375 6.125625 14.40234375 4.765625 14.40234375 C4.765625 15.06234375 4.765625 15.72234375 4.765625 16.40234375 C2.81640625 18.03125 2.81640625 18.03125 0.078125 19.96484375 C-0.91445312 20.66738281 -1.90703125 21.36992188 -2.9296875 22.09375 C-3.46368164 22.4664502 -3.99767578 22.83915039 -4.54785156 23.22314453 C-6.30164667 24.44937939 -8.04555551 25.68887742 -9.7890625 26.9296875 C-10.95785036 27.75459099 -12.12711183 28.5788239 -13.296875 29.40234375 C-13.85656982 29.8001001 -14.41626465 30.19785645 -14.99291992 30.60766602 C-19.00406818 33.40234375 -19.00406818 33.40234375 -21.234375 33.40234375 C-21.234375 34.06234375 -21.234375 34.72234375 -21.234375 35.40234375 C-21.894375 35.40234375 -22.554375 35.40234375 -23.234375 35.40234375 C-23.894375 36.72234375 -24.554375 38.04234375 -25.234375 39.40234375 C-30.80869932 38.90684825 -30.80869932 38.90684825 -32.921875 36.40234375 C-33.355 35.74234375 -33.788125 35.08234375 -34.234375 34.40234375 C-35.224375 34.07234375 -36.214375 33.74234375 -37.234375 33.40234375 C-37.234375 32.74234375 -37.234375 32.08234375 -37.234375 31.40234375 C-37.935625 31.13421875 -38.636875 30.86609375 -39.359375 30.58984375 C-42.3993574 29.33419885 -45.3071524 27.89999252 -48.234375 26.40234375 C-47.44319596 28.40217909 -47.44319596 28.40217909 -46.234375 30.40234375 C-44.749375 30.89734375 -44.749375 30.89734375 -43.234375 31.40234375 C-43.234375 32.06234375 -43.234375 32.72234375 -43.234375 33.40234375 C-41.584375 34.06234375 -39.934375 34.72234375 -38.234375 35.40234375 C-38.234375 36.06234375 -38.234375 36.72234375 -38.234375 37.40234375 C-35.20703125 37.98828125 -35.20703125 37.98828125 -32.1796875 38.57421875 C-30.234375 39.40234375 -30.234375 39.40234375 -29.12719727 41.06176758 C-27.98820289 44.04769568 -27.99209147 46.48436863 -28.00390625 49.6796875 C-28.00583984 50.91654297 -28.00777344 52.15339844 -28.00976562 53.42773438 C-28.02813477 55.36422852 -28.02813477 55.36422852 -28.046875 57.33984375 C-28.04751953 58.59603516 -28.04816406 59.85222656 -28.04882812 61.14648438 C-28.08661803 69.27971132 -28.52269252 77.30055042 -29.234375 85.40234375 C-36.164375 84.90734375 -36.164375 84.90734375 -43.234375 84.40234375 C-43.564375 83.08234375 -43.894375 81.76234375 -44.234375 80.40234375 C-44.894375 80.40234375 -45.554375 80.40234375 -46.234375 80.40234375 C-46.234375 78.75234375 -46.234375 77.10234375 -46.234375 75.40234375 C-45.574375 75.40234375 -44.914375 75.40234375 -44.234375 75.40234375 C-43.574375 72.76234375 -42.914375 70.12234375 -42.234375 67.40234375 C-45.13530002 69.33629376 -45.85741883 70.11421847 -47.421875 73.02734375 C-48.02 74.14109375 -48.618125 75.25484375 -49.234375 76.40234375 C-51.214375 76.07234375 -53.194375 75.74234375 -55.234375 75.40234375 C-55.234375 74.74234375 -55.234375 74.08234375 -55.234375 73.40234375 C-56.224375 73.40234375 -57.214375 73.40234375 -58.234375 73.40234375 C-58.234375 72.74234375 -58.234375 72.08234375 -58.234375 71.40234375 C-59.884375 71.07234375 -61.534375 70.74234375 -63.234375 70.40234375 C-63.729375 67.43234375 -63.729375 67.43234375 -64.234375 64.40234375 C-62.254375 63.90734375 -62.254375 63.90734375 -60.234375 63.40234375 C-60.234375 62.74234375 -60.234375 62.08234375 -60.234375 61.40234375 C-59.43 60.92796875 -58.625625 60.45359375 -57.796875 59.96484375 C-54.9425674 58.60250703 -54.9425674 58.60250703 -54.234375 55.40234375 C-56.214375 55.89734375 -56.214375 55.89734375 -58.234375 56.40234375 C-58.234375 57.06234375 -58.234375 57.72234375 -58.234375 58.40234375 C-63.859375 61.40234375 -63.859375 61.40234375 -67.234375 61.40234375 C-67.234375 62.06234375 -67.234375 62.72234375 -67.234375 63.40234375 C-67.894375 63.40234375 -68.554375 63.40234375 -69.234375 63.40234375 C-69.74181923 61.50848938 -70.24002074 59.61215709 -70.734375 57.71484375 C-71.15203125 56.13123047 -71.15203125 56.13123047 -71.578125 54.515625 C-72.1735465 51.69091703 -72.36223992 49.27397667 -72.234375 46.40234375 C-72.894375 46.40234375 -73.554375 46.40234375 -74.234375 46.40234375 C-74.564375 45.08234375 -74.894375 43.76234375 -75.234375 42.40234375 C-69.624375 42.40234375 -64.014375 42.40234375 -58.234375 42.40234375 C-58.234375 41.41234375 -58.234375 40.42234375 -58.234375 39.40234375 C-63.844375 39.40234375 -69.454375 39.40234375 -75.234375 39.40234375 C-75.52527989 32.42062646 -75.03488062 27.78749656 -72.234375 21.40234375 C-71.904375 20.41234375 -71.574375 19.42234375 -71.234375 18.40234375 C-70.574375 18.40234375 -69.914375 18.40234375 -69.234375 18.40234375 C-69.028125 17.55671875 -68.821875 16.71109375 -68.609375 15.83984375 C-65.52369244 8.12563736 -59.41394812 3.32239067 -52.234375 -0.59765625 C-51.574375 -0.59765625 -50.914375 -0.59765625 -50.234375 -0.59765625 C-50.234375 -1.25765625 -50.234375 -1.91765625 -50.234375 -2.59765625 C-48.48530969 -3.24601667 -46.73508281 -3.89124409 -44.984375 -4.53515625 C-44.00984375 -4.89480469 -43.0353125 -5.25445313 -42.03125 -5.625 C-27.8895375 -10.54299778 -12.5173107 -7.73475331 0 0 Z " fill="#E4E2E2" transform="translate(91.234375,27.59765625)"/>
<path d="M0 0 C0.33 0 0.66 0 1 0 C1.08636719 1.23234375 1.17273437 2.4646875 1.26171875 3.734375 C2.15390447 14.77335879 3.7449576 24.09181352 9.66015625 33.6953125 C11 36 11 36 11 38 C12.485 38.495 12.485 38.495 14 39 C14 39.721875 14 40.44375 14 41.1875 C15.38717265 45.08892307 17.74334968 45.9757616 21.28515625 47.88671875 C21.85105469 48.25410156 22.41695312 48.62148437 23 49 C23 49.66 23 50.32 23 51 C23.99 51.268125 24.98 51.53625 26 51.8125 C28.65560855 52.54725335 30.84106881 53.38938371 33.375 54.5625 C39.38920945 56.84223686 45.6638563 56.3179697 52 56.1875 C53.25167969 56.17396484 54.50335938 56.16042969 55.79296875 56.14648438 C58.86243116 56.11133786 61.93098509 56.06213226 65 56 C65.33 55.01 65.66 54.02 66 53 C67.0725 52.855625 68.145 52.71125 69.25 52.5625 C71.91662949 52.16250558 74.41399729 51.72408076 77 51 C77 50.34 77 49.68 77 49 C78.5390625 47.9921875 78.5390625 47.9921875 80.625 46.875 C85.84344618 43.76988549 89.29584617 39.40830765 92 34 C92.66 34 93.32 34 94 34 C94.061875 33.21625 94.12375 32.4325 94.1875 31.625 C95.29451682 26.68600189 97.3833931 22.32840581 100 18 C100.99 17.505 100.99 17.505 102 17 C101.835 17.928125 101.67 18.85625 101.5 19.8125 C100.92251612 22.95621353 100.92251612 22.95621353 101 26 C101.19335938 25.00097656 101.38671875 24.00195312 101.5859375 22.97265625 C101.84632812 21.68230469 102.10671875 20.39195313 102.375 19.0625 C102.63023438 17.77472656 102.88546875 16.48695312 103.1484375 15.16015625 C103.42945312 14.11730469 103.71046875 13.07445313 104 12 C104.66 11.67 105.32 11.34 106 11 C107.38367088 24.62147108 100.79808314 35.67610551 92.625 46 C89.02790548 48.74064345 86.4755716 48.77242856 82 49 C82.185625 49.61875 82.37125 50.2375 82.5625 50.875 C83 53 83 53 82 55 C75.16934721 59.18044822 69.01095541 61.73296815 61 62 C61 62.66 61 63.32 61 64 C57.52085059 64.02887814 54.04173169 64.04675687 50.5625 64.0625 C49.07266602 64.07506836 49.07266602 64.07506836 47.55273438 64.08789062 C46.13637695 64.09272461 46.13637695 64.09272461 44.69140625 64.09765625 C43.81685791 64.10289307 42.94230957 64.10812988 42.04125977 64.11352539 C40 64 40 64 39 63 C37.63200204 62.67708203 36.25506824 62.39165725 34.875 62.125 C30.57679429 61.20395592 26.96157149 59.90460168 23 58 C22.030625 57.566875 21.06125 57.13375 20.0625 56.6875 C19.381875 56.130625 18.70125 55.57375 18 55 C17.6875 51.8125 17.6875 51.8125 18 49 C14.7 48.34 11.4 47.68 8 47 C8 46.01 8 45.02 8 44 C7.34 44 6.68 44 6 44 C6 43.34 6 42.68 6 42 C5.34 42 4.68 42 4 42 C-0.65593847 35.90448167 -3.117508 29.34296547 -5 22 C-5.391875 20.845 -5.78375 19.69 -6.1875 18.5 C-7.24318734 13.95242375 -7.16823642 9.64519458 -7 5 C-6.34 5 -5.68 5 -5 5 C-4.67 4.34 -4.34 3.68 -4 3 C-2.68 3.33 -1.36 3.66 0 4 C0 2.68 0 1.36 0 0 Z " fill="#881211" transform="translate(14,61)"/>
<path d="M0 0 C2.39880344 0.88590987 2.39880344 0.88590987 6.08203125 1.2890625 C9.14453125 1.7265625 9.14453125 1.7265625 11.14453125 3.7265625 C10.76953125 6.3515625 10.76953125 6.3515625 10.14453125 8.7265625 C10.80453125 8.7265625 11.46453125 8.7265625 12.14453125 8.7265625 C16.4344494 15.13769479 18.60193876 20.92717811 18.14453125 28.7265625 C17.41593886 31.37057387 16.48786639 33.30855925 15.14453125 35.7265625 C10.45751113 35.7265625 8.55581213 32.81602443 5.14453125 29.7265625 C5.14453125 33.0265625 5.14453125 36.3265625 5.14453125 39.7265625 C-0.02070189 37.71086176 -2.80347918 34.83794295 -6.2421875 30.6640625 C-7.70081979 28.91229104 -9.21786271 27.30974658 -10.85546875 25.7265625 C-9.86546875 25.7265625 -8.87546875 25.7265625 -7.85546875 25.7265625 C-7.85546875 25.3965625 -7.85546875 25.0665625 -7.85546875 24.7265625 C-7.52875972 22.72546972 -7.19569661 20.72540119 -6.85546875 18.7265625 C-8.93100523 18.1730861 -10.69912839 17.7265625 -12.85546875 17.7265625 C-12.19546875 18.0565625 -11.53546875 18.3865625 -10.85546875 18.7265625 C-10.85546875 19.3865625 -10.85546875 20.0465625 -10.85546875 20.7265625 C-12.17546875 20.7265625 -13.49546875 20.7265625 -14.85546875 20.7265625 C-14.19546875 21.0565625 -13.53546875 21.3865625 -12.85546875 21.7265625 C-12.85546875 22.3865625 -12.85546875 23.0465625 -12.85546875 23.7265625 C-16.63273964 21.91347247 -20.22816697 19.8192366 -23.85546875 17.7265625 C-23.85546875 17.0665625 -23.85546875 16.4065625 -23.85546875 15.7265625 C-24.51546875 15.3965625 -25.17546875 15.0665625 -25.85546875 14.7265625 C-25.85546875 14.0665625 -25.85546875 13.4065625 -25.85546875 12.7265625 C-22.55546875 13.0565625 -19.25546875 13.3865625 -15.85546875 13.7265625 C-18.53604973 10.15245453 -21.28136078 7.40714348 -24.85546875 4.7265625 C-23.84032141 1.4555322 -22.82295139 0.70798115 -19.79296875 -1.0234375 C-12.88035288 -3.62819131 -6.74239713 -2.52692292 0 0 Z " fill="#C43D48" transform="translate(107.85546875,3.2734375)"/>
<path d="M0 0 C1.32 0 2.64 0 4 0 C3.835 0.639375 3.67 1.27875 3.5 1.9375 C2.96073333 3.80826821 2.96073333 3.80826821 3 5 C3.99 5.33 4.98 5.66 6 6 C1.92849694 9.96971548 -0.12708819 11.27327684 -5.97265625 11.62109375 C-9.64251439 12.30698246 -12.10255702 14.73999447 -15 17 C-15.66 17 -16.32 17 -17 17 C-17 17.66 -17 18.32 -17 19 C-18.609375 20.21875 -18.609375 20.21875 -20.75 21.5 C-21.44609375 21.9228125 -22.1421875 22.345625 -22.859375 22.78125 C-25 24 -25 24 -27.203125 24.96875 C-29.34792236 25.93476805 -29.34792236 25.93476805 -30 29 C-30.09523794 31.06989773 -30.13073105 33.14275723 -30.1328125 35.21484375 C-30.13410156 36.45943359 -30.13539062 37.70402344 -30.13671875 38.98632812 C-30.13091797 40.9421582 -30.13091797 40.9421582 -30.125 42.9375 C-30.12886719 44.20658203 -30.13273437 45.47566406 -30.13671875 46.78320312 C-30.12872492 54.57319032 -29.79278999 62.24998122 -29 70 C-27.329375 69.7215625 -27.329375 69.7215625 -25.625 69.4375 C-22 69 -22 69 -20 70 C-20 69.34 -20 68.68 -20 68 C-18.865625 67.71125 -17.73125 67.4225 -16.5625 67.125 C-15.386875 66.75375 -14.21125 66.3825 -13 66 C-12.67 65.34 -12.34 64.68 -12 64 C-12 64.66 -12 65.32 -12 66 C-11.34 66 -10.68 66 -10 66 C-9.67 67.32 -9.34 68.64 -9 70 C-10.134375 70.45375 -11.26875 70.9075 -12.4375 71.375 C-16.04721692 72.57095806 -16.04721692 72.57095806 -17 75 C-27.1668533 78.54895466 -43.38811198 77.43732734 -53.01171875 73.0703125 C-53.66785156 72.71710938 -54.32398437 72.36390625 -55 72 C-55.74894531 71.62617187 -56.49789062 71.25234375 -57.26953125 70.8671875 C-57.84058594 70.58101563 -58.41164063 70.29484375 -59 70 C-59 69.34 -59 68.68 -59 68 C-59.7425 67.731875 -60.485 67.46375 -61.25 67.1875 C-63.95639585 66.01882907 -65.88022545 65.04406831 -68 63 C-68.37309899 61.34178227 -68.70700977 59.67422986 -69 58 C-70.33289654 56.49985609 -70.33289654 56.49985609 -72 55 C-78.70959887 46.34245307 -81.17275673 35.93015967 -81.0625 25.125 C-81.05347656 23.97257812 -81.04445313 22.82015625 -81.03515625 21.6328125 C-81.02355469 20.76398437 -81.01195313 19.89515625 -81 19 C-80.67 19 -80.34 19 -80 19 C-80 20.98 -80 22.96 -80 25 C-74.39 25 -68.78 25 -63 25 C-63 25.99 -63 26.98 -63 28 C-68.61 28 -74.22 28 -80 28 C-79.67 29.32 -79.34 30.64 -79 32 C-78.34 32 -77.68 32 -77 32 C-76.87625 32.845625 -76.7525 33.69125 -76.625 34.5625 C-76.05116302 38.06062795 -76.05116302 38.06062795 -74.9375 41.625 C-74 45 -74 45 -74 49 C-73.34 49 -72.68 49 -72 49 C-72 48.34 -72 47.68 -72 47 C-69.03 46.01 -66.06 45.02 -63 44 C-63 43.34 -63 42.68 -63 42 C-61.02 41.505 -61.02 41.505 -59 41 C-59.1875 42.875 -59.1875 42.875 -60 45 C-62.5625 46.25 -62.5625 46.25 -65 47 C-65 47.66 -65 48.32 -65 49 C-66.485 49.495 -66.485 49.495 -68 50 C-67.67 51.98 -67.34 53.96 -67 56 C-65.68 56.33 -64.36 56.66 -63 57 C-63 57.66 -63 58.32 -63 59 C-62.01 59 -61.02 59 -60 59 C-60 59.66 -60 60.32 -60 61 C-57.2140814 61.67012422 -57.2140814 61.67012422 -54 61 C-52.39809638 59.02041179 -51.25347296 57.00666808 -50.078125 54.75 C-49.72234375 54.1725 -49.3665625 53.595 -49 53 C-48.34 53 -47.68 53 -47 53 C-47.875 58.75 -47.875 58.75 -49 61 C-49.66 61 -50.32 61 -51 61 C-51 62.65 -51 64.3 -51 66 C-50.34 66 -49.68 66 -49 66 C-48.67 67.32 -48.34 68.64 -48 70 C-46.80375 69.979375 -45.6075 69.95875 -44.375 69.9375 C-40.81392252 69.87610211 -37.50590609 70.39328931 -34 71 C-33.97530146 65.07348943 -33.95714069 59.14700875 -33.94506836 53.22045898 C-33.94003618 51.20385211 -33.93320986 49.1872489 -33.92456055 47.1706543 C-33.91244627 44.27391661 -33.90676057 41.37722712 -33.90234375 38.48046875 C-33.89718246 37.57725388 -33.89202118 36.674039 -33.88670349 35.74345398 C-33.88662796 34.90280899 -33.88655243 34.062164 -33.88647461 33.19604492 C-33.884254 32.45658127 -33.88203339 31.71711761 -33.87974548 30.95524597 C-33.92910884 28.78368342 -33.92910884 28.78368342 -35 26 C-36.8653245 24.98245132 -36.8653245 24.98245132 -39.0625 24.3125 C-39.79597656 24.06113281 -40.52945313 23.80976562 -41.28515625 23.55078125 C-41.85105469 23.36902344 -42.41695312 23.18726562 -43 23 C-43 22.34 -43 21.68 -43 21 C-45.475 20.01 -45.475 20.01 -48 19 C-48 18.34 -48 17.68 -48 17 C-49.32 16.67 -50.64 16.34 -52 16 C-52.33 14.68 -52.66 13.36 -53 12 C-48.80639551 12.67097672 -45.59665648 14.8558394 -42 17 C-42 17.66 -42 18.32 -42 19 C-41.4225 19.0825 -40.845 19.165 -40.25 19.25 C-38 20 -38 20 -36.0625 22.125 C-34.13227316 24.32321141 -34.13227316 24.32321141 -31.3125 23.875 C-28.83572904 23.23669149 -28.83572904 23.23669149 -28 21 C-27.34 21 -26.68 21 -26 21 C-26 20.34 -26 19.68 -26 19 C-23.71717674 17.35480326 -21.43351704 15.8208435 -19.0625 14.3125 C-13.70061743 10.83660822 -8.56845955 7.25659323 -3.63671875 3.1796875 C-2 2 -2 2 0 2 C0 1.34 0 0.68 0 0 Z " fill="#C4BDBD" transform="translate(96,42)"/>
<path d="M0 0 C0.33 0 0.66 0 1 0 C1.16712866 3.92752358 1.02345747 7.20167546 0 11 C-2.15413128 19.95503145 -1.78054842 29.27131869 1 38 C1.22300781 38.85464844 1.44601563 39.70929688 1.67578125 40.58984375 C3.0901279 45.80470472 4.92500423 49.96283794 8.01171875 54.40625 C9 56 9 56 9 58 C9.66 58 10.32 58 11 58 C11 58.66 11 59.32 11 60 C11.66 60 12.32 60 13 60 C13 60.99 13 61.98 13 63 C14.36125 62.938125 14.36125 62.938125 15.75 62.875 C20.62201835 63.06238532 20.62201835 63.06238532 23 65 C23.144375 65.969375 23.28875 66.93875 23.4375 67.9375 C23.67858667 71.10821661 23.67858667 71.10821661 26.0625 72.6875 C32.09099709 75.38108381 37.38616939 77.19014319 44 78 C44.33 78.33 44.66 78.66 45 79 C46.55948542 79.15686249 48.12542668 79.25076639 49.69140625 79.31640625 C50.63564453 79.35830078 51.57988281 79.40019531 52.55273438 79.44335938 C53.54595703 79.48267578 54.53917969 79.52199219 55.5625 79.5625 C57.05813477 79.62727539 57.05813477 79.62727539 58.58398438 79.69335938 C61.0558415 79.79980298 63.5278031 79.90181928 66 80 C66 79.34 66 78.68 66 78 C66.79664062 77.82984375 67.59328125 77.6596875 68.4140625 77.484375 C74.50514635 76.0912804 79.00164712 74.71672394 84 71 C84.99 71 85.98 71 87 71 C87 69.02 87 67.04 87 65 C87.9075 64.71125 88.815 64.4225 89.75 64.125 C96.89139919 61.6529772 100.76054121 58.11406193 104.390625 51.4453125 C107.20309815 45.46457141 109.29764657 39.38036529 111 33 C111.66 33.66 112.32 34.32 113 35 C112.77942443 42.59039456 109.98729226 48.70695727 106 55 C105.505 55.9075 105.01 56.815 104.5 57.75 C103 60 103 60 100.3125 62.625 C97.65119166 64.80575932 97.65119166 64.80575932 98 68 C99.74548697 70.32441407 101.64470138 72.46825771 103.56640625 74.6484375 C105 77 105 77 104.71484375 79.7890625 C104.36099609 80.88347656 104.36099609 80.88347656 104 82 C100.50307233 81.93006145 97.91504299 81.78999373 95.19921875 79.4453125 C91 74.61470764 91 74.61470764 91 72 C90.2265625 72.39832031 89.453125 72.79664062 88.65625 73.20703125 C72.19598333 81.57976591 56.19406837 85.82625308 37.6875 80.75 C32.54591808 79.00752733 27.78376717 76.54294992 23 74 C21.66848938 73.32970029 20.33576416 72.6617827 19 72 C18.7525 72.556875 18.505 73.11375 18.25 73.6875 C16.7119215 76.53294523 15.29925695 78.70074305 13 81 C9.25 81.8125 9.25 81.8125 6 82 C5.22265625 79.89453125 5.22265625 79.89453125 5 77 C6.40255612 74.66631058 7.72583521 72.76216881 9.4375 70.6875 C9.87126953 70.13771484 10.30503906 69.58792969 10.75195312 69.02148438 C11.82119504 67.67024459 12.90885811 66.33361786 14 65 C13.41089844 64.76152344 12.82179688 64.52304688 12.21484375 64.27734375 C4.63244079 59.90442352 -0.27656048 48.11010739 -2.56860352 39.98413086 C-3.90631599 34.51719108 -4.35006868 29.30488453 -4.3125 23.6875 C-4.31048584 22.86515869 -4.30847168 22.04281738 -4.30639648 21.19555664 C-4.18701579 13.89760748 -3.30410153 6.60820305 0 0 Z " fill="#A15657" transform="translate(9,45)"/>
<path d="M0 0 C0.66 0.33 1.32 0.66 2 1 C1.875 3.25 1.875 3.25 1 6 C-2.0625 8.3125 -2.0625 8.3125 -5 10 C-3.02 9.67 -1.04 9.34 1 9 C1 9.99 1 10.98 1 12 C-2.96 13.98 -6.92 15.96 -11 18 C-11 19.65 -11 21.3 -11 23 C-12.32 23 -13.64 23 -15 23 C-16 19.125 -16 19.125 -16 18 C-17.134375 18.474375 -18.26875 18.94875 -19.4375 19.4375 C-23.2754051 20.88949607 -26.84351738 21.48098513 -30.921875 21.7890625 C-33.02625753 22.00266524 -34.96294665 22.44026912 -37 23 C-37 21.68 -37 20.36 -37 19 C-37.66 19 -38.32 19 -39 19 C-39.33 19.66 -39.66 20.32 -40 21 C-39.26083824 15.97370003 -37.63107238 11.63107238 -34 8 C-33.28072705 5.68234271 -32.6090107 3.34904126 -32 1 C-29.02148438 0.70703125 -29.02148438 0.70703125 -26.04296875 0.4140625 C-23.70011858 0.07334609 -23.70011858 0.07334609 -21 -2 C-13.53602457 -4.19528689 -6.83018334 -3.48478742 0 0 Z " fill="#D3424D" transform="translate(43,4)"/>
<path d="M0 0 C0 1.32 0 2.64 0 4 C5.94 5.485 5.94 5.485 12 7 C12 7.33 12 7.66 12 8 C11.37544922 8.01981934 10.75089844 8.03963867 10.10742188 8.06005859 C7.23790619 8.15616932 4.36903453 8.26549487 1.5 8.375 C0.02660156 8.42140625 0.02660156 8.42140625 -1.4765625 8.46875 C-7.26969718 8.70047539 -12.43251492 9.36952223 -18 11 C-18 11.66 -18 12.32 -18 13 C-19.32 13.33 -20.64 13.66 -22 14 C-22 14.66 -22 15.32 -22 16 C-23.57421875 17.11328125 -23.57421875 17.11328125 -25.6875 18.3125 C-28.41918462 19.93700625 -30.68949814 21.50229983 -32.875 23.8125 C-33.57625 24.534375 -34.2775 25.25625 -35 26 C-35.66 26 -36.32 26 -37 26 C-37.433125 27.11375 -37.433125 27.11375 -37.875 28.25 C-38.82302644 30.56739797 -39.84845911 32.77917115 -41 35 C-41.66 35 -42.32 35 -43 35 C-43.12117188 35.66386719 -43.24234375 36.32773437 -43.3671875 37.01171875 C-44.22547708 41.53424459 -45.03971311 45.79938524 -47 50 C-47.66 50 -48.32 50 -49 50 C-49 51.32 -49 52.64 -49 54 C-52.465 54.495 -52.465 54.495 -56 55 C-55.72521165 51.32651364 -55.37538992 47.66452062 -55 44 C-54.91234375 43.00484375 -54.8246875 42.0096875 -54.734375 40.984375 C-53.78014636 33.06012843 -50.97242758 27.25071675 -46 21 C-45.34 20.67 -44.68 20.34 -44 20 C-44.165 20.7425 -44.33 21.485 -44.5 22.25 C-45.11925696 25.19006578 -45.11925696 25.19006578 -45 29 C-41.74396181 27.60859106 -40.00575442 26.06896049 -37.8125 23.3125 C-32.58299843 17.1403415 -26.43082897 12.23907929 -19 9 C-19 8.34 -19 7.68 -19 7 C-18.01 6.34 -17.02 5.68 -16 5 C-16.495 4.01 -16.495 4.01 -17 3 C-5.47835991 -0.44419134 -5.47835991 -0.44419134 0 0 Z " fill="#CC424A" transform="translate(63,11)"/>
<path d="M0 0 C-2.77878546 4.05239546 -5.65757546 6.16689193 -9.78125 8.62109375 C-14.94167697 11.82819009 -19.94806818 15.41990057 -23.6875 20.25 C-26.2138256 23.25427909 -28.41085734 24.49756819 -32 26 C-32.125 23.625 -32.125 23.625 -32 21 C-31.34 20.34 -30.68 19.68 -30 19 C-30 17.68 -30 16.36 -30 15 C-30.53109375 15.48210938 -31.0621875 15.96421875 -31.609375 16.4609375 C-32.31578125 17.09257813 -33.0221875 17.72421875 -33.75 18.375 C-34.44609375 19.00148438 -35.1421875 19.62796875 -35.859375 20.2734375 C-37.84508688 21.87505183 -39.67954093 22.96520068 -42 24 C-46.08511822 19.0268126 -46.12259508 15.37494396 -46 9 C-45.34 9 -44.68 9 -44 9 C-44 8.34 -44 7.68 -44 7 C-43.34 7 -42.68 7 -42 7 C-42 8.32 -42 9.64 -42 11 C-41.45988281 10.68933594 -40.91976562 10.37867188 -40.36328125 10.05859375 C-37.6136045 8.82692036 -35.1704943 8.4645724 -32.1875 8.0625 C-27.31040668 7.31631069 -23.40036191 6.20018096 -19 4 C-19.33 6.31 -19.66 8.62 -20 11 C-18.68 11 -17.36 11 -16 11 C-16.33 9.35 -16.66 7.7 -17 6 C-5.25085034 -2.31037415 -5.25085034 -2.31037415 0 0 Z " fill="#B0292D" transform="translate(48,16)"/>
<path d="M0 0 C0.33 0 0.66 0 1 0 C1 1.98 1 3.96 1 6 C6.61 6 12.22 6 18 6 C18 6.99 18 7.98 18 9 C12.39 9 6.78 9 1 9 C1.33 10.32 1.66 11.64 2 13 C2.66 13 3.32 13 4 13 C4.12375 13.845625 4.2475 14.69125 4.375 15.5625 C4.94883698 19.06062795 4.94883698 19.06062795 6.0625 22.625 C7 26 7 26 7 30 C7.66 30 8.32 30 9 30 C9 29.34 9 28.68 9 28 C11.97 27.01 14.94 26.02 18 25 C18 24.34 18 23.68 18 23 C19.32 22.67 20.64 22.34 22 22 C21.8125 23.875 21.8125 23.875 21 26 C18.4375 27.25 18.4375 27.25 16 28 C16 28.66 16 29.32 16 30 C15.01 30.33 14.02 30.66 13 31 C13.33 32.98 13.66 34.96 14 37 C15.32 37.33 16.64 37.66 18 38 C18 38.66 18 39.32 18 40 C18.99 40 19.98 40 21 40 C21 40.66 21 41.32 21 42 C23.7859186 42.67012422 23.7859186 42.67012422 27 42 C28.60190362 40.02041179 29.74652704 38.00666808 30.921875 35.75 C31.27765625 35.1725 31.6334375 34.595 32 34 C32.66 34 33.32 34 34 34 C33.125 39.75 33.125 39.75 32 42 C31.34 42 30.68 42 30 42 C29.67 43.65 29.34 45.3 29 47 C28.34 47 27.68 47 27 47 C26.67 48.32 26.34 49.64 26 51 C26.8353125 51.185625 26.8353125 51.185625 27.6875 51.375 C30 52 30 52 32.375 53 C39.01504966 55.52954273 45.87875584 55.11850442 52.875 55.0625 C53.94492188 55.05798828 55.01484375 55.05347656 56.1171875 55.04882812 C58.74484986 55.03709749 61.37239538 55.02068228 64 55 C59.16590517 57.80815881 54.39626654 57.38276557 48.9375 57.375 C47.90069092 57.37483887 46.86388184 57.37467773 45.7956543 57.37451172 C38.55891024 57.26623694 32.4555851 56.47510868 26 53 C25.25105469 52.62617187 24.50210938 52.25234375 23.73046875 51.8671875 C23.15941406 51.58101562 22.58835937 51.29484375 22 51 C22 50.34 22 49.68 22 49 C21.2575 48.731875 20.515 48.46375 19.75 48.1875 C17.04360415 47.01882907 15.11977455 46.04406831 13 44 C12.62690101 42.34178227 12.29299023 40.67422986 12 39 C10.66710346 37.49985609 10.66710346 37.49985609 9 36 C2.29040113 27.34245307 -0.17275673 16.93015967 -0.0625 6.125 C-0.05347656 4.97257812 -0.04445313 3.82015625 -0.03515625 2.6328125 C-0.02355469 1.76398437 -0.01195312 0.89515625 0 0 Z " fill="#C2BABB" transform="translate(15,61)"/>
<path d="M0 0 C6.61346633 3.6882793 6.61346633 3.6882793 8.9375 5.5625 C11.55605116 7.38755081 14.25940572 8.21072386 17.29296875 9.15625 C17.85628906 9.4346875 18.41960937 9.713125 19 10 C19.33 10.99 19.66 11.98 20 13 C20.62648438 12.98839844 21.25296875 12.97679687 21.8984375 12.96484375 C22.71570313 12.95582031 23.53296875 12.94679688 24.375 12.9375 C25.18710938 12.92589844 25.99921875 12.91429687 26.8359375 12.90234375 C29 13 29 13 31 14 C31.125 17.375 31.125 17.375 31 21 C30.34 21.66 29.68 22.32 29 23 C25.63060567 22.66306057 23.57089417 21.11180592 21 19 C21 21.97 21 24.94 21 28 C15.83476686 25.98429926 13.05198957 23.11138045 9.61328125 18.9375 C8.15464896 17.18572854 6.63760604 15.58318408 5 14 C5.99 14 6.98 14 8 14 C8 13.67 8 13.34 8 13 C8.32670903 10.99890722 8.65977214 8.99883869 9 7 C6.92446352 6.4465236 5.15634036 6 3 6 C3.66 6.33 4.32 6.66 5 7 C5 7.66 5 8.32 5 9 C3.68 9 2.36 9 1 9 C1.66 9.33 2.32 9.66 3 10 C3 10.66 3 11.32 3 12 C-0.77727089 10.18690997 -4.37269822 8.0926741 -8 6 C-8 5.34 -8 4.68 -8 4 C-8.66 3.67 -9.32 3.34 -10 3 C-10 2.34 -10 1.68 -10 1 C-6.7 1.33 -3.4 1.66 0 2 C0 1.34 0 0.68 0 0 Z " fill="#9B2626" transform="translate(92,15)"/>
<path d="M0 0 C2.97 0.495 2.97 0.495 6 1 C5.25 2.9375 5.25 2.9375 4 5 C1.875 5.75 1.875 5.75 0 6 C0 7.65 0 9.3 0 11 C1.11375 10.38125 2.2275 9.7625 3.375 9.125 C4.31472656 8.60292969 4.31472656 8.60292969 5.2734375 8.0703125 C7.1612614 6.99102726 7.1612614 6.99102726 9 5 C11.6015625 4.8046875 11.6015625 4.8046875 14.625 4.875 C16.12933594 4.90207031 16.12933594 4.90207031 17.6640625 4.9296875 C18.43492188 4.95289063 19.20578125 4.97609375 20 5 C20.24978106 8.91104548 20.28533491 9.6621034 17.625 12.8125 C15 15 15 15 13 15 C13 15.99 13 16.98 13 18 C9.07582044 19.89879656 5.46630934 20.39020943 1.18359375 20.75390625 C-0.95162837 20.99454846 -2.93025848 21.43211174 -5 22 C-5 20.68 -5 19.36 -5 18 C-5.66 18 -6.32 18 -7 18 C-7.33 18.66 -7.66 19.32 -8 20 C-7.26083824 14.97370003 -5.63107238 10.63107238 -2 7 C-1.28072705 4.68234271 -0.6090107 2.34904126 0 0 Z " fill="#DC575F" transform="translate(11,5)"/>
<path d="M0 0 C0.33 0 0.66 0 1 0 C1.08636719 1.23234375 1.17273437 2.4646875 1.26171875 3.734375 C2.15390447 14.77335879 3.7449576 24.09181352 9.66015625 33.6953125 C11 36 11 36 11 38 C12.485 38.495 12.485 38.495 14 39 C14 39.99 14 40.98 14 42 C13.34 42 12.68 42 12 42 C12 41.34 12 40.68 12 40 C11.01 40 10.02 40 9 40 C8.505 40.495 8.505 40.495 8 41 C6.35 39.35 4.7 37.7 3 36 C2.34 36.66 1.68 37.32 1 38 C-4.77747874 27.04271273 -7.22055736 17.40022498 -7 5 C-6.34 5 -5.68 5 -5 5 C-4.67 4.34 -4.34 3.68 -4 3 C-2.68 3.33 -1.36 3.66 0 4 C0 2.68 0 1.36 0 0 Z " fill="#922122" transform="translate(14,61)"/>
<path d="M0 0 C1.32 0 2.64 0 4 0 C3.835 0.639375 3.67 1.27875 3.5 1.9375 C2.96073333 3.80826821 2.96073333 3.80826821 3 5 C3.99 5.33 4.98 5.66 6 6 C1.92849694 9.96971548 -0.12708819 11.27327684 -5.97265625 11.62109375 C-9.64251439 12.30698246 -12.10255702 14.73999447 -15 17 C-15.66 17 -16.32 17 -17 17 C-17 17.66 -17 18.32 -17 19 C-18.609375 20.21875 -18.609375 20.21875 -20.75 21.5 C-21.79414062 22.13421875 -21.79414062 22.13421875 -22.859375 22.78125 C-25 24 -25 24 -27.203125 24.96875 C-29.34792236 25.93476805 -29.34792236 25.93476805 -30 29 C-31.32 29 -32.64 29 -34 29 C-34.33 28.01 -34.66 27.02 -35 26 C-36.8653245 24.98245132 -36.8653245 24.98245132 -39.0625 24.3125 C-39.79597656 24.06113281 -40.52945313 23.80976562 -41.28515625 23.55078125 C-41.85105469 23.36902344 -42.41695312 23.18726562 -43 23 C-43 22.34 -43 21.68 -43 21 C-45.475 20.01 -45.475 20.01 -48 19 C-48 18.34 -48 17.68 -48 17 C-49.32 16.67 -50.64 16.34 -52 16 C-52.33 14.68 -52.66 13.36 -53 12 C-48.80639551 12.67097672 -45.59665648 14.8558394 -42 17 C-42 17.66 -42 18.32 -42 19 C-41.4225 19.0825 -40.845 19.165 -40.25 19.25 C-38 20 -38 20 -36.0625 22.125 C-34.13227316 24.32321141 -34.13227316 24.32321141 -31.3125 23.875 C-28.83572904 23.23669149 -28.83572904 23.23669149 -28 21 C-27.34 21 -26.68 21 -26 21 C-26 20.34 -26 19.68 -26 19 C-23.71717674 17.35480326 -21.43351704 15.8208435 -19.0625 14.3125 C-13.70061743 10.83660822 -8.56845955 7.25659323 -3.63671875 3.1796875 C-2 2 -2 2 0 2 C0 1.34 0 0.68 0 0 Z " fill="#646363" transform="translate(96,42)"/>
<path d="M0 0 C0.33 0 0.66 0 1 0 C2.03194763 23.78877436 2.03194763 23.78877436 -4 34 C-4.66 34 -5.32 34 -6 34 C-6.226875 34.70125 -6.45375 35.4025 -6.6875 36.125 C-9.41530372 42.10018911 -13.36563408 45.74458858 -19 49 C-19.66 49 -20.32 49 -21 49 C-21 49.66 -21 50.32 -21 51 C-23.35438733 52.42944945 -24.48032433 53.08661261 -27.25 52.625 C-27.8275 52.41875 -28.405 52.2125 -29 52 C-27.02 51.505 -27.02 51.505 -25 51 C-25.33 49.68 -25.66 48.36 -26 47 C-26.66 47 -27.32 47 -28 47 C-32.40774487 38.738041 -32.40774487 38.738041 -33 34 C-32.01 34 -31.02 34 -30 34 C-29.74605469 34.51949219 -29.49210937 35.03898437 -29.23046875 35.57421875 C-27.29956111 39.48665708 -25.31511537 43.2958154 -23 47 C-17.43446953 46.12523553 -13.76856662 41.91845279 -10 38 C-8.65086092 35.98893956 -7.85437133 34.27832356 -7 32 C-7.5775 31.855625 -8.155 31.71125 -8.75 31.5625 C-10.83333333 31.04166667 -12.91666667 30.52083333 -15 30 C-15 29.34 -15 28.68 -15 28 C-15.804375 27.731875 -16.60875 27.46375 -17.4375 27.1875 C-18.283125 26.795625 -19.12875 26.40375 -20 26 C-20.33 25.01 -20.66 24.02 -21 23 C-16.14036821 23.60745397 -12.2594482 25.72758967 -8 28 C-8 28.66 -8 29.32 -8 30 C-6.68 30 -5.36 30 -4 30 C-3.87625 29.13375 -3.7525 28.2675 -3.625 27.375 C-3 24 -3 24 -2 21.1875 C-0.72071951 17.10979343 -0.38677352 13.25450873 0 9 C-5.61 9 -11.22 9 -17 9 C-17 8.01 -17 7.02 -17 6 C-11.39 6 -5.78 6 0 6 C0 4.02 0 2.04 0 0 Z " fill="#C46160" transform="translate(112,61)"/>
<path d="M0 0 C0.625 1.875 0.625 1.875 1 4 C0.34 4.66 -0.32 5.32 -1 6 C-1 7.32 -1 8.64 -1 10 C0.98 8.68 2.96 7.36 5 6 C5.33 6.66 5.66 7.32 6 8 C5.13375 9.1446875 5.13375 9.1446875 4.25 10.3125 C-0.42800345 17.34609383 -2.38981241 25.81487977 -4 34 C-7.465 34.495 -7.465 34.495 -11 35 C-10.72521165 31.32651364 -10.37538992 27.66452062 -10 24 C-9.91234375 23.00484375 -9.8246875 22.0096875 -9.734375 20.984375 C-8.77009531 12.97666104 -5.81323988 5.81323988 0 0 Z " fill="#D65654" transform="translate(18,31)"/>
<path d="M0 0 C0.33 0 0.66 0 1 0 C1.16712866 3.92752358 1.02345747 7.20167546 0 11 C-2.15413128 19.95503145 -1.78054842 29.27131869 1 38 C1.22300781 38.85464844 1.44601563 39.70929688 1.67578125 40.58984375 C3.0901279 45.80470472 4.92500423 49.96283794 8.01171875 54.40625 C9 56 9 56 9 58 C9.66 58 10.32 58 11 58 C11 58.66 11 59.32 11 60 C11.66 60 12.32 60 13 60 C13 60.99 13 61.98 13 63 C14.98 63 16.96 63 19 63 C19 64.65 19 66.3 19 68 C17.515 68.495 17.515 68.495 16 69 C14.83333333 70.91666667 14.83333333 70.91666667 14 73 C13.67 73.66 13.34 74.32 13 75 C12.34 75 11.68 75 11 75 C10.67 75.99 10.34 76.98 10 78 C8.515 78.495 8.515 78.495 7 79 C6.68161298 75.79907334 6.8047395 74.31331341 8.53125 71.54296875 C9.1809375 70.76566406 9.830625 69.98835938 10.5 69.1875 C11.47453125 68.00220703 11.47453125 68.00220703 12.46875 66.79296875 C12.9740625 66.20128906 13.479375 65.60960938 14 65 C13.41089844 64.76152344 12.82179688 64.52304688 12.21484375 64.27734375 C4.63244079 59.90442352 -0.27656048 48.11010739 -2.56860352 39.98413086 C-3.90631599 34.51719108 -4.35006868 29.30488453 -4.3125 23.6875 C-4.31048584 22.86515869 -4.30847168 22.04281738 -4.30639648 21.19555664 C-4.18701579 13.89760748 -3.30410153 6.60820305 0 0 Z " fill="#A05859" transform="translate(9,45)"/>
<path d="M0 0 C0 0.99 0 1.98 0 3 C-0.94359375 2.7834375 -0.94359375 2.7834375 -1.90625 2.5625 C-11.0594956 0.32104194 -11.0594956 0.32104194 -20 2 C-16.7 2.66 -13.4 3.32 -10 4 C-10 4.66 -10 5.32 -10 6 C-9.01 6 -8.02 6 -7 6 C-7.875 12.75 -7.875 12.75 -9 15 C-13.4396975 14.45817899 -16.10893646 12.81894031 -19.6875 10.1875 C-20.64011719 9.50042969 -21.59273438 8.81335937 -22.57421875 8.10546875 C-24.86469446 6.11743911 -25.92720924 4.79176543 -27 2 C-18.63961059 -5.19922422 -9.78134098 -3.88478791 0 0 Z " fill="#D54853" transform="translate(110,4)"/>
<path d="M0 0 C0.66 0 1.32 0 2 0 C2 0.66 2 1.32 2 2 C2.598125 2.2578125 3.19625 2.515625 3.8125 2.78125 C6.79029834 4.44030907 8.36753237 6.68879151 10.4375 9.34375 C11.93379111 11.12329937 11.93379111 11.12329937 14.15234375 12.05859375 C14.76207031 12.36925781 15.37179688 12.67992187 16 13 C16.5625 15.5625 16.5625 15.5625 17 19 C17.50335614 20.38149374 18.025867 21.75608898 18.5625 23.125 C20.52455544 28.69685646 20.26663905 34.16356743 20 40 C20.33 40 20.66 40 21 40 C22.28324735 47.26658135 21.98082866 53.17167003 19 60 C18.34 60.66 17.68 61.32 17 62 C17.66 58.04 18.32 54.08 19 50 C18.01 50.495 18.01 50.495 17 51 C16.96261719 49.73285156 16.92523438 48.46570313 16.88671875 47.16015625 C16.82100207 45.46091069 16.75455677 43.7616932 16.6875 42.0625 C16.66494141 41.23169922 16.64238281 40.40089844 16.61914062 39.54492188 C16.3637104 33.57714305 15.14913974 28.5589597 13 23 C12.5875 21.865625 12.175 20.73125 11.75 19.5625 C9.71781459 15.42555113 7.18601811 11.91469081 4.42578125 8.234375 C3 6 3 6 3 3 C2.01 2.67 1.02 2.34 0 2 C0 1.34 0 0.68 0 0 Z " fill="#B04445" transform="translate(96,29)"/>
<path d="M0 0 C0 0.99 0 1.98 0 3 C-0.66 3 -1.32 3 -2 3 C-2 3.66 -2 4.32 -2 5 C-2.99 5 -3.98 5 -5 5 C-5 5.66 -5 6.32 -5 7 C-6.65 7.66 -8.3 8.32 -10 9 C-10 9.66 -10 10.32 -10 11 C-11.609375 12.65625 -11.609375 12.65625 -13.75 14.5 C-14.44609375 15.1084375 -15.1421875 15.716875 -15.859375 16.34375 C-17.84460792 17.87976963 -19.71872045 18.9723966 -22 20 C-26.08511822 15.0268126 -26.12259508 11.37494396 -26 5 C-25.34 5 -24.68 5 -24 5 C-24 4.34 -24 3.68 -24 3 C-23.34 3 -22.68 3 -22 3 C-22 4.32 -22 5.64 -22 7 C-21.46117187 6.68933594 -20.92234375 6.37867188 -20.3671875 6.05859375 C-17.59800636 4.82023057 -15.12861565 4.46374637 -12.125 4.0625 C-7.47853351 3.35246539 -3.9982611 2.44338179 0 0 Z " fill="#9D1F1F" transform="translate(28,20)"/>
<path d="M0 0 C0.66 0.66 1.32 1.32 2 2 C1.77942443 9.59039456 -1.01270774 15.70695727 -5 22 C-5.495 22.9075 -5.99 23.815 -6.5 24.75 C-8 27 -8 27 -10.6875 29.625 C-13.34880834 31.80575932 -13.34880834 31.80575932 -13 35 C-11.55197396 36.85743816 -9.94848977 38.49079878 -8.3125 40.18359375 C-7 42 -7 42 -7 46 C-9.31 45.34 -11.62 44.68 -14 44 C-14 43.34 -14 42.68 -14 42 C-14.66 42 -15.32 42 -16 42 C-17.81242323 37.9811485 -19.33501617 34.38889325 -20 30 C-19.2471875 29.90460938 -18.494375 29.80921875 -17.71875 29.7109375 C-12.9839589 28.47281684 -10.71973425 24.8924637 -8 21 C-4.32134776 14.35469273 -1.95238572 7.31747817 0 0 Z " fill="#AB5D5B" transform="translate(120,78)"/>
<path d="M0 0 C1.08152344 -0.01417969 2.16304687 -0.02835937 3.27734375 -0.04296875 C6.0625 0.1875 6.0625 0.1875 8.0625 2.1875 C7.6875 4.8125 7.6875 4.8125 7.0625 7.1875 C5.4125 7.1875 3.7625 7.1875 2.0625 7.1875 C1.7325 9.8275 1.4025 12.4675 1.0625 15.1875 C0.4025 15.1875 -0.2575 15.1875 -0.9375 15.1875 C-0.9375 13.8675 -0.9375 12.5475 -0.9375 11.1875 C-10.3425 13.1675 -10.3425 13.1675 -19.9375 15.1875 C-19.9375 14.1975 -19.9375 13.2075 -19.9375 12.1875 C-14.3275 10.8675 -8.7175 9.5475 -2.9375 8.1875 C-5.4125 7.1975 -5.4125 7.1975 -7.9375 6.1875 C-6.83807901 0.06215447 -6.23046561 0.03704201 0 0 Z " fill="#7F4F53" transform="translate(63.9375,-0.1875)"/>
<path d="M0 0 C0.99 0 1.98 0 3 0 C3 0.66 3 1.32 3 2 C16.41239198 6.85956231 29.03153469 8.73442644 43 5 C44.66534667 4.66013333 46.33129513 4.32297514 48 4 C48 3.34 48 2.68 48 2 C46.35 2 44.7 2 43 2 C43.33 1.34 43.66 0.68 44 0 C45.65 0 47.3 0 49 0 C49 0.66 49 1.32 49 2 C50.32 2 51.64 2 53 2 C53 2.66 53 3.32 53 4 C53.66 4.33 54.32 4.66 55 5 C44.62642369 9.59225513 44.62642369 9.59225513 39 9 C39 9.66 39 10.32 39 11 C38.50371094 10.84144531 38.00742188 10.68289062 37.49609375 10.51953125 C34.74246256 9.94639675 32.06846883 9.84633267 29.26269531 9.76025391 C18.94899288 9.41921048 8.68470679 8.05393795 0 2 C0 1.34 0 0.68 0 0 Z " fill="#882E2F" transform="translate(36,114)"/>
<path d="M0 0 C0.66 0 1.32 0 2 0 C1.125 5.75 1.125 5.75 0 8 C-0.66 8 -1.32 8 -2 8 C-2.33 9.65 -2.66 11.3 -3 13 C-3.66 13 -4.32 13 -5 13 C-5.33 14.32 -5.66 15.64 -6 17 C-5.443125 17.12375 -4.88625 17.2475 -4.3125 17.375 C-2 18 -2 18 0.375 19 C7.01504966 21.52954273 13.87875584 21.11850442 20.875 21.0625 C21.94492188 21.05798828 23.01484375 21.05347656 24.1171875 21.04882812 C26.74484986 21.03709749 29.37239538 21.02068228 32 21 C27.16590517 23.80815881 22.39626654 23.38276557 16.9375 23.375 C15.90069092 23.37483887 14.86388184 23.37467773 13.7956543 23.37451172 C6.55891024 23.26623694 0.4555851 22.47510868 -6 19 C-6.74894531 18.62617187 -7.49789062 18.25234375 -8.26953125 17.8671875 C-9.12611328 17.43792969 -9.12611328 17.43792969 -10 17 C-10 16.34 -10 15.68 -10 15 C-10.7425 14.731875 -11.485 14.46375 -12.25 14.1875 C-14.89061949 13.04723249 -16.85552844 11.90619694 -19 10 C-19 9.34 -19 8.68 -19 8 C-18.401875 8.309375 -17.80375 8.61875 -17.1875 8.9375 C-14.91043228 10.10209704 -14.91043228 10.10209704 -12 11 C-10.97980427 11.9793879 -9.97850195 12.97895449 -9 14 C-8.34 14.33 -7.68 14.66 -7 15 C-6.8865625 14.27296875 -6.773125 13.5459375 -6.65625 12.796875 C-5.97659561 9.90025271 -4.98218892 7.81797848 -3.5 5.25 C-3.0565625 4.47140625 -2.613125 3.6928125 -2.15625 2.890625 C-1 1 -1 1 0 0 Z " fill="#A85355" transform="translate(47,95)"/>
<path d="M0 0 C1.32 0 2.64 0 4 0 C3.835 0.639375 3.67 1.27875 3.5 1.9375 C2.96073333 3.80826821 2.96073333 3.80826821 3 5 C3.99 5.33 4.98 5.66 6 6 C1.92851571 9.96969718 -0.13175368 11.28169715 -5.98046875 11.6171875 C-9.08374287 12.20542902 -11.02745466 13.9901422 -13.359375 16.0390625 C-15 17 -15 17 -17.203125 16.6484375 C-17.79609375 16.43445313 -18.3890625 16.22046875 -19 16 C-13.90260698 10.37529046 -7.24582444 4.41527481 0 2 C0 1.34 0 0.68 0 0 Z " fill="#616261" transform="translate(96,42)"/>
<path d="M0 0 C2.475 0.99 2.475 0.99 5 2 C3.67985925 8.01397454 0.4301202 11.04773546 -4 15 C-4.721875 15.66 -5.44375 16.32 -6.1875 17 C-8 18 -8 18 -10.125 18 C-12.79366778 16.57671052 -13.1357687 14.80875171 -14 12 C-12 10 -12 10 -9.0625 9.125 C-5.67489332 7.88057306 -4.99903006 6.85575723 -3 4 C-2.01 4 -1.02 4 0 4 C0 2.68 0 1.36 0 0 Z " fill="#D0CFCF" transform="translate(100,91)"/>
<path d="M0 0 C-0.33 1.98 -0.66 3.96 -1 6 C-2.32 6.33 -3.64 6.66 -5 7 C-5 7.66 -5 8.32 -5 9 C-5.66 9 -6.32 9 -7 9 C-7.33 9.99 -7.66 10.98 -8 12 C-10.97 12 -13.94 12 -17 12 C-17 10.35 -17 8.7 -17 7 C-16.34 7 -15.68 7 -15 7 C-15 6.34 -15 5.68 -15 5 C-10.23910203 0.91923031 -6.18959252 -0.64474922 0 0 Z " fill="#EA6970" transform="translate(28,12)"/>
<path d="M0 0 C0.33 0 0.66 0 1 0 C2.21276434 11.93899112 -2.65859751 22.75598272 -10 32 C-11.60094555 33.7811567 -13.22757708 35.38396734 -15 37 C-16.32 36.34 -17.64 35.68 -19 35 C-18.32904297 34.27296875 -18.32904297 34.27296875 -17.64453125 33.53125 C-13.91667606 29.39802036 -10.7775782 25.32198178 -8.04296875 20.46875 C-7.69878906 19.9840625 -7.35460937 19.499375 -7 19 C-6.34 19 -5.68 19 -5 19 C-4.72285156 17.71222656 -4.44570312 16.42445312 -4.16015625 15.09765625 C-3.79446528 13.41922846 -3.42856928 11.74084532 -3.0625 10.0625 C-2.88009766 9.21236328 -2.69769531 8.36222656 -2.50976562 7.48632812 C-2.33251953 6.67744141 -2.15527344 5.86855469 -1.97265625 5.03515625 C-1.81031494 4.2862915 -1.64797363 3.53742676 -1.48071289 2.76586914 C-1 1 -1 1 0 0 Z " fill="#8E2D2A" transform="translate(119,72)"/>
<path d="M0 0 C0.66 0 1.32 0 2 0 C3.19388403 31.32040447 3.19388403 31.32040447 3 45 C1.68 45 0.36 45 -1 45 C-1.21277549 29.98750714 -0.57172934 14.99877175 0 0 Z " fill="#CE9F89" transform="translate(63,71)"/>
<path d="M0 0 C7.01571956 6.04131406 9.56585461 14.04426637 11 23 C11.25823084 26.48528763 11.28107597 29.9440432 11.25 33.4375 C11.25773437 34.33404297 11.26546875 35.23058594 11.2734375 36.15429688 C11.27085938 37.00958984 11.26828125 37.86488281 11.265625 38.74609375 C11.26336914 39.51622803 11.26111328 40.2863623 11.25878906 41.07983398 C11 43 11 43 9 45 C8.67 36.42 8.34 27.84 8 19 C7.34 19 6.68 19 6 19 C5.34 15.7 4.68 12.4 4 9 C3.01 8.67 2.02 8.34 1 8 C0.67 5.36 0.34 2.72 0 0 Z " fill="#B76361" transform="translate(112,35)"/>
<path d="M0 0 C0.33 0 0.66 0 1 0 C1.10957031 1.29035156 1.21914062 2.58070312 1.33203125 3.91015625 C1.49158084 5.62766063 1.65177112 7.34510558 1.8125 9.0625 C1.88275391 9.91005859 1.95300781 10.75761719 2.02539062 11.63085938 C2.54786004 17.0436425 3.7531141 21.06916272 6 26 C6 27.32 6 28.64 6 30 C5.34 30 4.68 30 4 30 C3.67 29.34 3.34 28.68 3 28 C2.34 29.32 1.68 30.64 1 32 C-3.59225513 22.58997722 -3.59225513 22.58997722 -3 18 C-1 21 -1 21 0 24 C0 18.72 0 13.44 0 8 C-0.66 8 -1.32 8 -2 8 C-2.33 10.31 -2.66 12.62 -3 15 C-3.33 15 -3.66 15 -4 15 C-4.33 13.02 -4.66 11.04 -5 9 C-5.33 10.98 -5.66 12.96 -6 15 C-6.33 15 -6.66 15 -7 15 C-7 11.7 -7 8.4 -7 5 C-6.34 5 -5.68 5 -5 5 C-4.67 4.34 -4.34 3.68 -4 3 C-2.68 3.33 -1.36 3.66 0 4 C0 2.68 0 1.36 0 0 Z " fill="#B14141" transform="translate(14,61)"/>
<path d="M0 0 C1.32 0.33 2.64 0.66 4 1 C4 2.98 4 4.96 4 7 C3.071875 7.12375 3.071875 7.12375 2.125 7.25 C-0.1304373 7.78571015 -0.1304373 7.78571015 -1 9.75 C-1.33 10.4925 -1.66 11.235 -2 12 C-3.6875 14.6875 -3.6875 14.6875 -6 17 C-9.75 17.8125 -9.75 17.8125 -13 18 C-13.33 16.35 -13.66 14.7 -14 13 C-13.34 12.67 -12.68 12.34 -12 12 C-11.67 12.66 -11.34 13.32 -11 14 C-10.54625 13.505 -10.0925 13.01 -9.625 12.5 C-8 11 -8 11 -6 11 C-5.731875 10.401875 -5.46375 9.80375 -5.1875 9.1875 C-4 7 -4 7 -2.4375 5.5 C-0.73683989 3.72539815 -0.41205818 2.38993744 0 0 Z " fill="#725F5E" transform="translate(28,109)"/>
<path d="M0 0 C0.99 0.33 1.98 0.66 3 1 C1.68 1.33 0.36 1.66 -1 2 C-1 2.66 -1 3.32 -1 4 C-2.57421875 5.11328125 -2.57421875 5.11328125 -4.6875 6.3125 C-7.41918462 7.93700625 -9.68949814 9.50229983 -11.875 11.8125 C-12.57625 12.534375 -13.2775 13.25625 -14 14 C-14.66 14 -15.32 14 -16 14 C-16.433125 15.11375 -16.433125 15.11375 -16.875 16.25 C-17.82302644 18.56739797 -18.84845911 20.77917115 -20 23 C-20.66 23 -21.32 23 -22 23 C-22.12117188 23.66386719 -22.24234375 24.32773437 -22.3671875 25.01171875 C-23.22547708 29.53424459 -24.03971311 33.79938524 -26 38 C-26.33 38 -26.66 38 -27 38 C-26.68613591 31.51347546 -25.37102489 27.05393204 -22.25390625 21.359375 C-20.94453586 19.01211301 -20.94453586 19.01211301 -20.01953125 16.4375 C-18.98580497 13.96606246 -17.85780192 12.27908412 -16.125 10.25 C-15.63257813 9.65703125 -15.14015625 9.0640625 -14.6328125 8.453125 C-12.72928243 6.75907431 -11.45050654 6.57712864 -9 6 C-6.63324636 4.48232436 -4.38955888 2.83991324 -2.12109375 1.1796875 C-1.42113281 0.79039063 -0.72117187 0.40109375 0 0 Z " fill="#A15255" transform="translate(42,23)"/>
<path d="M0 0 C1 2 1 2 0.6875 4 C0 6 0 6 -2 8 C-2 8.99 -2 9.98 -2 11 C-3.65 10.67 -5.3 10.34 -7 10 C-6.938125 10.928125 -6.87625 11.85625 -6.8125 12.8125 C-7 16 -7 16 -8.375 17.625 C-9.179375 18.305625 -9.179375 18.305625 -10 19 C-11.17574711 21.09989652 -11.17574711 21.09989652 -12 23 C-12.33 23 -12.66 23 -13 23 C-12.85831863 21.56208484 -12.71148957 20.1246763 -12.5625 18.6875 C-12.48128906 17.88699219 -12.40007813 17.08648437 -12.31640625 16.26171875 C-12 14 -12 14 -11 11 C-10.34 11 -9.68 11 -9 11 C-8.71125 10.071875 -8.4225 9.14375 -8.125 8.1875 C-7 5 -7 5 -5 2 C-2.375 0.8125 -2.375 0.8125 0 0 Z " fill="#E7E5E6" transform="translate(31,35)"/>
<path d="M0 0 C1.32 0.33 2.64 0.66 4 1 C4 1.99 4 2.98 4 4 C16.59980571 9.1086485 27.48936975 10.71466462 41 11 C39 13 39 13 35.12109375 13.23046875 C33.55983524 13.22647576 31.99857586 13.21171261 30.4375 13.1875 C29.64408203 13.18685547 28.85066406 13.18621094 28.03320312 13.18554688 C22.14025522 13.14025522 22.14025522 13.14025522 21 12 C19.63200204 11.67708203 18.25506824 11.39165725 16.875 11.125 C10.84980089 9.8338859 4.9590832 7.75688121 0 4 C0 2.68 0 1.36 0 0 Z " fill="#751D1D" transform="translate(32,112)"/>
<path d="M0 0 C2.92879371 0.62759865 5.36095629 1.58622659 8 3 C8 6 8 9 8 12 C6.68 11.34 5.36 10.68 4 10 C4 10.66 4 11.32 4 12 C4.66 12.33 5.32 12.66 6 13 C5.67 13.66 5.34 14.32 5 15 C0.125 12.25 0.125 12.25 -1 10 C-2.48867276 9.07133836 -4.01554706 8.20294664 -5.5625 7.375 C-6.38878906 6.92898437 -7.21507813 6.48296875 -8.06640625 6.0234375 C-8.70449219 5.68570312 -9.34257813 5.34796875 -10 5 C-6.18702864 3.72900955 -4.6732166 4.54601843 -1 6 C-0.01 6.66 0.98 7.32 2 8 C2 7.34 2 6.68 2 6 C1.01 5.67 0.02 5.34 -1 5 C-0.34 4.67 0.32 4.34 1 4 C1.99 4.33 2.98 4.66 4 5 C4 4.34 4 3.68 4 3 C2.68 2.34 1.36 1.68 0 1 C0 0.67 0 0.34 0 0 Z " fill="#A23C3E" transform="translate(93,19)"/>
<path d="M0 0 C3.2910841 3.60957611 4.54663921 6.12637153 5 11 C5.66 11 6.32 11 7 11 C7 11.66 7 12.32 7 13 C7.78375 13.144375 8.5675 13.28875 9.375 13.4375 C12 14 12 14 14 15 C14.33 14.34 14.66 13.68 15 13 C14.67 14.65 14.34 16.3 14 18 C7.97512299 17.80636984 7.97512299 17.80636984 5.48486328 15.74707031 C4.07200619 14.0976347 2.80707804 12.40461236 1.5625 10.625 C1.11712891 10.03460938 0.67175781 9.44421875 0.21289062 8.8359375 C-3 4.45337702 -3 4.45337702 -3 1 C-2.01 0.67 -1.02 0.34 0 0 Z " fill="#615456" transform="translate(99,109)"/>
<path d="M0 0 C1.98 0.99 1.98 0.99 4 2 C4 2.66 4 3.32 4 4 C4.556875 4.20625 5.11375 4.4125 5.6875 4.625 C8.93653549 6.55685894 10.8038546 8.94979805 13 12 C13 13.32 13 14.64 13 16 C10.69 15.34 8.38 14.68 6 14 C6 13.34 6 12.68 6 12 C5.34 12 4.68 12 4 12 C2.18757677 7.9811485 0.66498383 4.38889325 0 0 Z " fill="#A6AFBC" transform="translate(100,108)"/>
<path d="M0 0 C0.33 0.66 0.66 1.32 1 2 C1.66 2 2.32 2 3 2 C4.32594359 7.96674616 4.0884587 13.92583615 4 20 C1.4345406 17.4345406 1.45953913 15.52313332 1 12 C0.01 12.495 0.01 12.495 -1 13 C-1.33 13.99 -1.66 14.98 -2 16 C-3 15 -3 15 -3.09765625 11.83984375 C-3.08025391 9.90818359 -3.08025391 9.90818359 -3.0625 7.9375 C-3.05347656 6.64714844 -3.04445313 5.35679688 -3.03515625 4.02734375 C-3.02355469 3.02832031 -3.01195312 2.02929688 -3 1 C-2.34 1.66 -1.68 2.32 -1 3 C-0.67 2.01 -0.34 1.02 0 0 Z " fill="#9D1E1F" transform="translate(11,67)"/>
<path d="M0 0 C0.66 0 1.32 0 2 0 C2 3.63 2 7.26 2 11 C2.33 11 2.66 11 3 11 C4.28324735 18.26658135 3.98082866 24.17167003 1 31 C0.34 31.66 -0.32 32.32 -1 33 C-0.34 29.04 0.32 25.08 1 21 C0.34 21.33 -0.32 21.66 -1 22 C-1.02700675 19.08327116 -1.04684237 16.16679323 -1.0625 13.25 C-1.07087891 12.425 -1.07925781 11.6 -1.08789062 10.75 C-1.09111328 9.95078125 -1.09433594 9.1515625 -1.09765625 8.328125 C-1.10289307 7.5949707 -1.10812988 6.86181641 -1.11352539 6.10644531 C-0.9975109 3.9538151 -0.59073271 2.0685865 0 0 Z " fill="#AF3834" transform="translate(114,58)"/>
<path d="M0 0 C1.04800781 -0.01401855 1.04800781 -0.01401855 2.1171875 -0.02832031 C5.81458383 -0.00489626 7.40675702 0.14617134 10.5625 2.25 C9.9641333 2.25410889 9.3657666 2.25821777 8.74926758 2.26245117 C-7.71711658 2.46011736 -19.92277123 4.08776209 -33.4375 14.25 C-30.4781462 7.85139718 -24.7892412 4.79069648 -18.4375 2.25 C-12.38387722 0.31544909 -6.30443029 0.05942237 0 0 Z " fill="#DC5F63" transform="translate(64.4375,16.75)"/>
<path d="M0 0 C1.98 0.99 1.98 0.99 4 2 C4.99 1.34 5.98 0.68 7 0 C11 4.75 11 4.75 11 7 C11.639375 7.20625 12.27875 7.4125 12.9375 7.625 C15 9 15 9 15.75 12.125 C15.87375 13.548125 15.87375 13.548125 16 15 C10.83476686 12.98429926 8.05198957 10.11138045 4.61328125 5.9375 C3.04284641 3.98798179 3.04284641 3.98798179 1.29296875 2.3125 C0 1 0 1 0 0 Z " fill="#A31618" transform="translate(97,28)"/>
<path d="M0 0 C0.33 2.31 0.66 4.62 1 7 C-2.70787035 7.28328381 -6.30318076 7.46346554 -10 7 C-12.1875 4.5 -12.1875 4.5 -13 2 C-8.46298506 0.54815522 -4.81938524 -0.23509196 0 0 Z " fill="#C6413D" transform="translate(122,21)"/>
<path d="M0 0 C2.0078125 0.23046875 2.0078125 0.23046875 5.0078125 2.23046875 C4.6778125 3.55046875 4.3478125 4.87046875 4.0078125 6.23046875 C3.3478125 6.23046875 2.6878125 6.23046875 2.0078125 6.23046875 C2.0078125 6.89046875 2.0078125 7.55046875 2.0078125 8.23046875 C1.0178125 8.72546875 1.0178125 8.72546875 0.0078125 9.23046875 C0.0078125 9.89046875 0.0078125 10.55046875 0.0078125 11.23046875 C-0.9821875 11.23046875 -1.9721875 11.23046875 -2.9921875 11.23046875 C-3.3221875 11.89046875 -3.6521875 12.55046875 -3.9921875 13.23046875 C-3.9921875 9.60046875 -3.9921875 5.97046875 -3.9921875 2.23046875 C-4.9821875 1.90046875 -5.9721875 1.57046875 -6.9921875 1.23046875 C-5.11574989 -0.64596886 -2.49413049 0.05061888 0 0 Z " fill="#C73540" transform="translate(35.9921875,3.76953125)"/>
<path d="M0 0 C0 0.66 0 1.32 0 2 C-5.73310689 4.39748106 -10.80481527 5.58411954 -17 6 C-17 5.34 -17 4.68 -17 4 C-18.953125 4.06510417 -20.90625 4.13020833 -22.859375 4.1953125 C-25.30724458 3.97196674 -26.84545329 3.14041026 -29 2 C-28.12263184 1.96241577 -28.12263184 1.96241577 -27.22753906 1.92407227 C-24.56815529 1.80777038 -21.90909597 1.68519933 -19.25 1.5625 C-17.86941406 1.50352539 -17.86941406 1.50352539 -16.4609375 1.44335938 C-15.57148437 1.40146484 -14.68203125 1.35957031 -13.765625 1.31640625 C-12.94868164 1.27974854 -12.13173828 1.24309082 -11.29003906 1.20532227 C-7.38597964 0.85528879 -3.98248013 -0.11062445 0 0 Z " fill="#982426" transform="translate(84,116)"/>
<path d="M0 0 C-0.39832031 0.45890625 -0.79664063 0.9178125 -1.20703125 1.390625 C-2.00173828 2.31101562 -2.00173828 2.31101562 -2.8125 3.25 C-3.36550781 3.889375 -3.91851562 4.52875 -4.48828125 5.1875 C-6.0704752 7.01881225 -6.0704752 7.01881225 -7.5 9.25 C-9.6012178 11.70142077 -12.08379776 12.70391012 -15 14 C-15 12.35 -15 10.7 -15 9 C-13.68 8.34 -12.36 7.68 -11 7 C-11 6.01 -11 5.02 -11 4 C-7.85045474 -0.40936336 -5.20933654 -0.4007182 0 0 Z " fill="#AE1E1F" transform="translate(31,28)"/>
<path d="M0 0 C0 0.99 0 1.98 0 3 C-3.96 4.98 -7.92 6.96 -12 9 C-12 10.65 -12 12.3 -12 14 C-13.32 14 -14.64 14 -16 14 C-16.84290621 11.63986261 -17.13867449 10.40341668 -16.3125 8 C-14.70111239 5.54455222 -13.32669017 3.82362203 -11 2 C-7.375 1.3125 -7.375 1.3125 -4 1 C-2 0 -2 0 0 0 Z " fill="#9E3D3D" transform="translate(44,13)"/>
<path d="M0 0 C9.45045544 -0.5428985 17.76750333 1.14493786 26 6 C26.33 6.66 26.66 7.32 27 8 C22.8034759 8.30706274 20.05705687 7.72488636 16.27734375 5.93359375 C11.0472737 3.78953416 5.44535912 2.48784431 0 1 C0 0.67 0 0.34 0 0 Z " fill="#D1656B" transform="translate(66,10)"/>
<path d="M0 0 C0.66 0 1.32 0 2 0 C2 1.65 2 3.3 2 5 C1.01 5.33 0.02 5.66 -1 6 C-2.16666667 7.91666667 -2.16666667 7.91666667 -3 10 C-3.33 10.66 -3.66 11.32 -4 12 C-4.66 12 -5.32 12 -6 12 C-6.33 12.99 -6.66 13.98 -7 15 C-7.99 15.33 -8.98 15.66 -10 16 C-10.51385563 13.17379401 -10.34138082 11.50996394 -8.734375 9.109375 C-7.21930562 7.3001174 -5.75564125 5.57825781 -4 4 C-3.34 4 -2.68 4 -2 4 C-1.34 2.68 -0.68 1.36 0 0 Z " fill="#D0D1D4" transform="translate(26,108)"/>
<path d="M0 0 C5.05663427 3.42066436 7.83507897 7.91002391 11 13 C10.67 13.66 10.34 14.32 10 15 C6.44175575 15 3.42984189 14.94616328 0 14 C0.99 12.35 1.98 10.7 3 9 C2.34 8.67 1.68 8.34 1 8 C1.020625 7.236875 1.04125 6.47375 1.0625 5.6875 C1.12942841 2.89814214 1.12942841 2.89814214 0 0 Z " fill="#C3BCBE" transform="translate(97,33)"/>
<path d="M0 0 C0.680625 0.185625 1.36125 0.37125 2.0625 0.5625 C5.57232191 1.08523943 8.52188063 0.61378577 12 0 C12 2 12 2 10.35546875 3.7265625 C9.64003906 4.35304688 8.92460937 4.97953125 8.1875 5.625 C7.12595703 6.57246094 7.12595703 6.57246094 6.04296875 7.5390625 C4 9 4 9 1 9 C-0.4783226 6.04335481 -0.06032783 3.25770263 0 0 Z " fill="#921416" transform="translate(6,29)"/>
<path d="M0 0 C0 0.99 0 1.98 0 3 C-0.99 3 -1.98 3 -3 3 C-3 3.66 -3 4.32 -3 5 C-4.65 5.33 -6.3 5.66 -8 6 C-8 6.66 -8 7.32 -8 8 C-13.75 11 -13.75 11 -16 11 C-16.33 11.99 -16.66 12.98 -17 14 C-18.84765625 14.94921875 -18.84765625 14.94921875 -21.0625 15.6875 C-22.16271484 16.06455078 -22.16271484 16.06455078 -23.28515625 16.44921875 C-23.85105469 16.63097656 -24.41695313 16.81273438 -25 17 C-23.62090338 13.59155912 -22.39436506 12.33262465 -19.0625 10.8125 C-18.37285156 10.48894531 -17.68320313 10.16539063 -16.97265625 9.83203125 C-15.34504283 9.14553292 -13.67581767 8.55860589 -12 8 C-12 7.34 -12 6.68 -12 6 C-10.13671875 4.4921875 -10.13671875 4.4921875 -7.6875 2.875 C-6.88699219 2.33617187 -6.08648437 1.79734375 -5.26171875 1.2421875 C-3 0 -3 0 0 0 Z " fill="#C8C8C7" transform="translate(91,53)"/>
<path d="M0 0 C2.97 0.495 2.97 0.495 6 1 C5.25 2.9375 5.25 2.9375 4 5 C1.875 5.75 1.875 5.75 0 6 C-0.33 7.65 -0.66 9.3 -1 11 C-1.99 11.33 -2.98 11.66 -4 12 C-4 15.3 -4 18.6 -4 22 C-4.33 20.68 -4.66 19.36 -5 18 C-5.66 18 -6.32 18 -7 18 C-7.33 18.66 -7.66 19.32 -8 20 C-7.26083824 14.97370003 -5.63107238 10.63107238 -2 7 C-1.28072705 4.68234271 -0.6090107 2.34904126 0 0 Z " fill="#B7575B" transform="translate(11,5)"/>
<path d="M0 0 C0.33 0 0.66 0 1 0 C1 4.62 1 9.24 1 14 C0.67 14 0.34 14 0 14 C0 12.35 0 10.7 0 9 C-5.61 9 -11.22 9 -17 9 C-17 8.01 -17 7.02 -17 6 C-11.39 6 -5.78 6 0 6 C0 4.02 0 2.04 0 0 Z " fill="#D58281" transform="translate(112,61)"/>
<path d="M0 0 C0.625 1.875 0.625 1.875 1 4 C0.34 4.66 -0.32 5.32 -1 6 C-1 7.32 -1 8.64 -1 10 C-0.34 9.34 0.32 8.68 1 8 C1.99 8.33 2.98 8.66 4 9 C3.34 9 2.68 9 2 9 C1.67 10.32 1.34 11.64 1 13 C-0.65 13 -2.3 13 -4 13 C-4.33 13.99 -4.66 14.98 -5 16 C-5.33 15.34 -5.66 14.68 -6 14 C-6.66 14 -7.32 14 -8 14 C-6.58036591 8.32146365 -3.60636039 4.46825784 0 0 Z " fill="#C54E51" transform="translate(18,31)"/>
<path d="M0 0 C0.33 0 0.66 0 1 0 C1 1.98 1 3.96 1 6 C6.61 6 12.22 6 18 6 C18 6.99 18 7.98 18 9 C12.39 9 6.78 9 1 9 C0.67 10.32 0.34 11.64 0 13 C0 8.71 0 4.42 0 0 Z " fill="#D48485" transform="translate(15,61)"/>
<path d="M0 0 C5.54285686 0.8398268 10.34734614 2.89823076 15 6 C15 6.66 15 7.32 15 8 C13.68 8 12.36 8 11 8 C11.66 8.33 12.32 8.66 13 9 C13 9.66 13 10.32 13 11 C9.22272911 9.18690997 5.62730178 7.0926741 2 5 C2 4.34 2 3.68 2 3 C1.34 2.67 0.68 2.34 0 2 C0 1.34 0 0.68 0 0 Z " fill="#8B0B0C" transform="translate(82,16)"/>
<path d="M0 0 C0.66 0 1.32 0 2 0 C2 0.66 2 1.32 2 2 C2.598125 2.2578125 3.19625 2.515625 3.8125 2.78125 C6.79029834 4.44030907 8.36753237 6.68879151 10.4375 9.34375 C11.92553595 11.12644623 11.92553595 11.12644623 14.140625 11.9921875 C14.75421875 12.32476562 15.3678125 12.65734375 16 13 C16.75 16.625 16.75 16.625 17 20 C15.1875 19.875 15.1875 19.875 13 19 C10 13.96428571 10 13.96428571 10 11 C9.401875 10.9175 8.80375 10.835 8.1875 10.75 C5.34974589 9.77705573 4.50323933 8.55550687 3 6 C3 5.01 3 4.02 3 3 C2.01 2.67 1.02 2.34 0 2 C0 1.34 0 0.68 0 0 Z " fill="#B93D46" transform="translate(96,29)"/>
<path d="M0 0 C0.93065133 2.60582371 1.14917407 3.64198224 0.0625 6.25 C-0.288125 6.8275 -0.63875 7.405 -1 8 C-4.58273331 6.34643078 -7.80973467 4.32019297 -11 2 C-11 1.34 -11 0.68 -11 0 C-7.18243176 -1.37432457 -3.92744671 -0.67975039 0 0 Z " fill="#E16970" transform="translate(100,11)"/>
<path d="M0 0 C0.33 0.66 0.66 1.32 1 2 C1.66 2 2.32 2 3 2 C3.33 3.32 3.66 4.64 4 6 C-2.74153283 7.25841946 -9.13484138 8.26404456 -16 8 C-16.33 8.66 -16.66 9.32 -17 10 C-16.67 8.68 -16.34 7.36 -16 6 C-9.25 4.875 -9.25 4.875 -7 6 C-7 5.34 -7 4.68 -7 4 C-4.69 3.34 -2.38 2.68 0 2 C0 1.34 0 0.68 0 0 Z " fill="#C5C0C0" transform="translate(83,106)"/>
<path d="M0 0 C1.32 0 2.64 0 4 0 C4 4.95 4 9.9 4 15 C2.68 15 1.36 15 0 15 C0 10.05 0 5.1 0 0 Z " fill="#DB9092" transform="translate(62,22)"/>
<path d="M0 0 C0.33 0 0.66 0 1 0 C1.16735677 3.93288409 1.01661026 7.30149147 0.0625 11.125 C-1.37467368 17.00620009 -1.64601799 22.97299047 -2 29 C-2.66 29 -3.32 29 -4 29 C-4.36511429 19.10134603 -4.55514999 9.11029998 0 0 Z " fill="#B46163" transform="translate(9,45)"/>
<path d="M0 0 C0.99 0.66 1.98 1.32 3 2 C3 2.66 3 3.32 3 4 C1.390625 5.21875 1.390625 5.21875 -0.75 6.5 C-1.44609375 6.9228125 -2.1421875 7.345625 -2.859375 7.78125 C-5 9 -5 9 -7.203125 9.96875 C-9.34792236 10.93476805 -9.34792236 10.93476805 -10 14 C-11.32 13.67 -12.64 13.34 -14 13 C-13 10 -13 10 -11 8.9375 C-10.34 8.628125 -9.68 8.31875 -9 8 C-8.67 7.34 -8.34 6.68 -8 6 C-7.34 6 -6.68 6 -6 6 C-6 5.34 -6 4.68 -6 4 C-4.03852126 2.61061923 -2.03833424 1.2739589 0 0 Z " fill="#616161" transform="translate(76,57)"/>
<path d="M0 0 C1.32 0 2.64 0 4 0 C3.835 0.639375 3.67 1.27875 3.5 1.9375 C2.96073333 3.80826821 2.96073333 3.80826821 3 5 C3.99 5.33 4.98 5.66 6 6 C-0.47685525 11.87435709 -0.47685525 11.87435709 -5 12 C-5.66 11.34 -6.32 10.68 -7 10 C-5.02 8.68 -3.04 7.36 -1 6 C-1.33 4.68 -1.66 3.36 -2 2 C-1.34 2 -0.68 2 0 2 C0 1.34 0 0.68 0 0 Z " fill="#C6787A" transform="translate(96,42)"/>
<path d="M0 0 C0.80824219 0.11085938 1.61648437 0.22171875 2.44921875 0.3359375 C3.37154297 0.47902344 3.37154297 0.47902344 4.3125 0.625 C4.3125 1.285 4.3125 1.945 4.3125 2.625 C5.3025 2.625 6.2925 2.625 7.3125 2.625 C6.4375 9.375 6.4375 9.375 5.3125 11.625 C4.6525 11.625 3.9925 11.625 3.3125 11.625 C3.6425 8.985 3.9725 6.345 4.3125 3.625 C0.15111737 3.54340426 -3.6347484 3.64251476 -7.6875 4.625 C-7.6875 3.635 -7.6875 2.645 -7.6875 1.625 C-4.33422361 -0.61051759 -3.78006343 -0.54783528 0 0 Z " fill="#D75159" transform="translate(95.6875,7.375)"/>
<path d="M0 0 C0 0.66 0 1.32 0 2 C-0.99 2 -1.98 2 -3 2 C-2.4946875 2.90363281 -1.989375 3.80726562 -1.46875 4.73828125 C-0.8121697 5.92950551 -0.15593782 7.12092185 0.5 8.3125 C1.00080078 9.20485352 1.00080078 9.20485352 1.51171875 10.11523438 C3.06825114 12.95828844 4 14.70660988 4 18 C0.89999181 16.93521458 0.02537809 16.04202519 -1.703125 13.1796875 C-2.21359375 12.08914062 -2.7240625 10.99859375 -3.25 9.875 C-3.77078125 8.77929688 -4.2915625 7.68359375 -4.828125 6.5546875 C-5.21484375 5.71164063 -5.6015625 4.86859375 -6 4 C-5.34 3.67 -4.68 3.34 -4 3 C-4 2.34 -4 1.68 -4 1 C-2 0 -2 0 0 0 Z " fill="#D9ABAE" transform="translate(45,24)"/>
<path d="M0 0 C1.67542976 0.28604898 3.34385343 0.61781233 5 1 C6.125 4.75 6.125 4.75 5 7 C5.66 7 6.32 7 7 7 C8.6875 9.375 8.6875 9.375 10 12 C9.67 12.66 9.34 13.32 9 14 C8.34 13.67 7.68 13.34 7 13 C7 12.34 7 11.68 7 11 C5.68 10.34 4.36 9.68 3 9 C3 8.01 3 7.02 3 6 C2.01 5.67 1.02 5.34 0 5 C-0.75 3 -0.75 3 -1 1 C-0.67 0.67 -0.34 0.34 0 0 Z " fill="#AE727B" transform="translate(113,5)"/>
<path d="M0 0 C0.433125 0.639375 0.86625 1.27875 1.3125 1.9375 C2.91239177 4.26746003 2.91239177 4.26746003 6 5 C6 5.66 6 6.32 6 7 C8.475 7.99 8.475 7.99 11 9 C11 9.66 11 10.32 11 11 C11.56589844 11.10957031 12.13179687 11.21914062 12.71484375 11.33203125 C13.44832031 11.49058594 14.18179688 11.64914063 14.9375 11.8125 C15.66839844 11.96332031 16.39929688 12.11414063 17.15234375 12.26953125 C17.76207031 12.51058594 18.37179688 12.75164062 19 13 C19.33 13.99 19.66 14.98 20 16 C14.25 15.125 14.25 15.125 12 14 C12 13.34 12 12.68 12 12 C10.35 11.67 8.7 11.34 7 11 C7 10.34 7 9.68 7 9 C6.4225 8.7525 5.845 8.505 5.25 8.25 C2.6997003 6.83316683 0.98214299 5.12372463 -1 3 C-0.67 2.01 -0.34 1.02 0 0 Z " fill="#CBCBCA" transform="translate(42,54)"/>
<path d="M0 0 C1.65 0 3.3 0 5 0 C6.125 3.75 6.125 3.75 5 6 C2.37418862 7.57548683 1.12900213 8 -2 8 C-2 7.34 -2 6.68 -2 6 C-3.32 6 -4.64 6 -6 6 C-6 5.34 -6 4.68 -6 4 C-3 2 -3 2 0 2 C0 1.34 0 0.68 0 0 Z " fill="#861917" transform="translate(91,110)"/>
<path d="M0 0 C6.2054142 0.48320848 11.99945246 1.33318124 18 3 C17.01 3.495 17.01 3.495 16 4 C16 4.66 16 5.32 16 6 C18.475 6.495 18.475 6.495 21 7 C21 7.33 21 7.66 21 8 C17.625 8.125 17.625 8.125 14 8 C13.34 7.34 12.68 6.68 12 6 C12.33 5.67 12.66 5.34 13 5 C7.06 4.01 7.06 4.01 1 3 C0.67 2.01 0.34 1.02 0 0 Z " fill="#C13940" transform="translate(66,12)"/>
<path d="M0 0 C0.33 0.66 0.66 1.32 1 2 C-7.02643536 11.5299463 -7.02643536 11.5299463 -11 14 C-13.3125 13.75 -13.3125 13.75 -15 13 C-14 10 -14 10 -12.125 8.8125 C-10 8 -10 8 -7 8 C-7 7.34 -7 6.68 -7 6 C-5.68 5.67 -4.36 5.34 -3 5 C-2.87625 4.360625 -2.7525 3.72125 -2.625 3.0625 C-2.41875 2.381875 -2.2125 1.70125 -2 1 C-1.34 0.67 -0.68 0.34 0 0 Z " fill="#BCB0B0" transform="translate(103,95)"/>
<path d="M0 0 C0.66 0 1.32 0 2 0 C2 2.64 2 5.28 2 8 C1.34 8 0.68 8 0 8 C0 6.68 0 5.36 0 4 C-9.405 5.98 -9.405 5.98 -19 8 C-19 7.01 -19 6.02 -19 5 C-12.53991163 3.04978464 -6.7281627 2.77737697 0 3 C0 2.01 0 1.02 0 0 Z " fill="#C87A7F" transform="translate(63,7)"/>
<path d="M0 0 C3.96 0 7.92 0 12 0 C12.33 1.32 12.66 2.64 13 4 C8.38 4 3.76 4 -1 4 C-0.67 2.68 -0.34 1.36 0 0 Z " fill="#99A5B1" transform="translate(58,0)"/>
<path d="M0 0 C0.33 0.66 0.66 1.32 1 2 C0.4225 2.763125 -0.155 3.52625 -0.75 4.3125 C-5.03514533 10.72502244 -7.02915054 18.60931453 -9 26 C-9.33 26 -9.66 26 -10 26 C-10.4530667 18.86419941 -9.36342901 14.27759133 -6 8 C-5.46375 6.989375 -4.9275 5.97875 -4.375 4.9375 C-3.92125 4.298125 -3.4675 3.65875 -3 3 C-2.34 3 -1.68 3 -1 3 C-0.67 2.01 -0.34 1.02 0 0 Z " fill="#F58B8C" transform="translate(23,37)"/>
<path d="M0 0 C1.45823212 -0.0270043 2.91660675 -0.04639787 4.375 -0.0625 C5.18710938 -0.07410156 5.99921875 -0.08570312 6.8359375 -0.09765625 C9 0 9 0 11 1 C11.1875 4.375 11.1875 4.375 11 8 C10.01 8.66 9.02 9.32 8 10 C8 9.34 8 8.68 8 8 C7.01 7.67 6.02 7.34 5 7 C5 5.02 5 3.04 5 1 C3.35 1 1.7 1 0 1 C0 0.67 0 0.34 0 0 Z " fill="#9B2F2B" transform="translate(112,28)"/>
<path d="M0 0 C0.66 0 1.32 0 2 0 C1.125 5.75 1.125 5.75 0 8 C-0.66 8 -1.32 8 -2 8 C-2.33 9.65 -2.66 11.3 -3 13 C-3.66 13 -4.32 13 -5 13 C-5.66 14.32 -6.32 15.64 -7 17 C-8.01971445 10.54180847 -4.47580226 6.11260664 -1 1 C-0.67 0.67 -0.34 0.34 0 0 Z " fill="#C97D7E" transform="translate(47,95)"/>
<path d="M0 0 C4.85963179 0.60745397 8.7405518 2.72758967 13 5 C13 5.66 13 6.32 13 7 C13.99 7.33 14.98 7.66 16 8 C15.34 8.66 14.68 9.32 14 10 C11.36 9.01 8.72 8.02 6 7 C6 6.34 6 5.68 6 5 C5.195625 4.731875 4.39125 4.46375 3.5625 4.1875 C2.716875 3.795625 1.87125 3.40375 1 3 C0.67 2.01 0.34 1.02 0 0 Z " fill="#D3787A" transform="translate(91,84)"/>
<path d="M0 0 C1.47906892 -0.02689216 2.95827483 -0.04634621 4.4375 -0.0625 C5.26121094 -0.07410156 6.08492187 -0.08570313 6.93359375 -0.09765625 C9 0 9 0 10 1 C10.20790205 4.14451855 9.94490047 6.99164121 9 10 C6.82656414 12.27767739 4.78487771 13.43034165 2 15 C1.67 14.01 1.34 13.02 1 12 C1.93585937 11.89365234 1.93585937 11.89365234 2.890625 11.78515625 C5.19229321 11.19995468 5.19229321 11.19995468 6.046875 8.93359375 C6.27890625 8.10988281 6.5109375 7.28617188 6.75 6.4375 C6.99234375 5.61121094 7.2346875 4.78492188 7.484375 3.93359375 C7.65453125 3.29550781 7.8246875 2.65742188 8 2 C5.36 2 2.72 2 0 2 C0 1.34 0 0.68 0 0 Z " fill="#CF4951" transform="translate(23,8)"/>
<path d="M0 0 C0.33 0.66 0.66 1.32 1 2 C1.66 2 2.32 2 3 2 C3.13277344 2.84820312 3.26554687 3.69640625 3.40234375 4.5703125 C4.007081 8.04063477 4.75771267 11.44590618 5.5625 14.875 C5.96662109 16.60363281 5.96662109 16.60363281 6.37890625 18.3671875 C6.58386719 19.23601562 6.78882813 20.10484375 7 21 C2.35200216 17.90133478 1.41889323 13.25908189 0 8 C-0.28194498 5.21958876 -0.21130099 2.79973816 0 0 Z " fill="#CFCCCB" transform="translate(16,72)"/>
<path d="M0 0 C-0.1875 1.875 -0.1875 1.875 -1 4 C-3.5625 5.25 -3.5625 5.25 -6 6 C-6 6.66 -6 7.32 -6 8 C-8.90600261 9.25664978 -10.79604584 10 -14 10 C-13.78515625 8.109375 -13.78515625 8.109375 -13 6 C-10.93359375 4.953125 -10.93359375 4.953125 -8.4375 4.25 C-7.61121094 4.00765625 -6.78492188 3.7653125 -5.93359375 3.515625 C-4.97646484 3.26039062 -4.97646484 3.26039062 -4 3 C-4 2.34 -4 1.68 -4 1 C-2 0 -2 0 0 0 Z " fill="#DC7274" transform="translate(37,83)"/>
<path d="M0 0 C0 1.65 0 3.3 0 5 C-2.97 5 -5.94 5 -9 5 C-9 3.35 -9 1.7 -9 0 C-5.67465243 -1.10844919 -3.37817425 -0.84454356 0 0 Z " fill="#FA7F84" transform="translate(20,19)"/>
<path d="M0 0 C1.32 0.33 2.64 0.66 4 1 C3.58427734 1.8353125 3.58427734 1.8353125 3.16015625 2.6875 C0.68683764 7.89819259 -0.58161204 12.24716553 -1 18 C-2.5625 16.5 -2.5625 16.5 -4 14 C-3.82320611 8.51938932 -2.76414842 4.80721464 0 0 Z " fill="#E3696B" transform="translate(14,44)"/>
<path d="M0 0 C0.66 0 1.32 0 2 0 C2 1.32 2 2.64 2 4 C2.66 4.33 3.32 4.66 4 5 C3.01 5 2.02 5 1 5 C1.46800711 9.05606165 1.87953208 12.46588679 4 16 C3.01 16 2.02 16 1 16 C-1.43425238 11.03006806 -2.34615998 7.65394631 -2 2 C-1.34 2 -0.68 2 0 2 C0 1.34 0 0.68 0 0 Z " fill="#A5413F" transform="translate(4,23)"/>
<path d="M0 0 C2 3 2 3 3 6 C3.66 5.01 4.32 4.02 5 3 C5 3.66 5 4.32 5 5 C5.66 5 6.32 5 7 5 C9 8 9 8 9 12 C8.34 12 7.68 12 7 12 C6.67 11.34 6.34 10.68 6 10 C5.34 11.32 4.68 12.64 4 14 C-0.59225513 4.58997722 -0.59225513 4.58997722 0 0 Z " fill="#A53436" transform="translate(11,79)"/>
<path d="M0 0 C-5.61 0 -11.22 0 -17 0 C-17 0.99 -17 1.98 -17 3 C-19.31 3.66 -21.62 4.32 -24 5 C-24.33 4.01 -24.66 3.02 -25 2 C-16.79168417 -1.70178949 -8.45411341 -4.22705671 0 0 Z " fill="#B65259" transform="translate(40,3)"/>
<path d="M0 0 C1.15224028 0.92961422 2.29659176 1.8690125 3.4375 2.8125 C4.07558594 3.33457031 4.71367187 3.85664062 5.37109375 4.39453125 C7 6 7 6 8 9 C10.00016466 10.20882096 10.00016466 10.20882096 12 11 C10.125 12.0625 10.125 12.0625 8 13 C7.34 12.67 6.68 12.34 6 12 C6 11.01 6 10.02 6 9 C5.34 9 4.68 9 4 9 C4 8.34 4 7.68 4 7 C3.34 7 2.68 7 2 7 C0 4 0 4 0 0 Z " fill="#7E1E1E" transform="translate(16,96)"/>
<path d="M0 0 C7.2274605 -0.24091535 13.90294338 0.65504172 21 2 C21 2.66 21 3.32 21 4 C13.52605426 4.37369729 7.17859349 3.04061541 0 1 C0 0.67 0 0.34 0 0 Z " fill="#7B1819" transform="translate(46,118)"/>
<path d="M0 0 C2.1875 0.3125 2.1875 0.3125 4 1 C3.34 2.65 2.68 4.3 2 6 C-0.31 6.33 -2.62 6.66 -5 7 C-5.33 5.35 -5.66 3.7 -6 2 C-5.34 1.67 -4.68 1.34 -4 1 C-3.67 1.66 -3.34 2.32 -3 3 C-2.5875 2.484375 -2.175 1.96875 -1.75 1.4375 C-1.1725 0.963125 -0.595 0.48875 0 0 Z " fill="#6E6869" transform="translate(20,120)"/>
<path d="M0 0 C0.680625 0.02578125 1.36125 0.0515625 2.0625 0.078125 C2.743125 0.09359375 3.42375 0.1090625 4.125 0.125 C6.0625 0.328125 6.0625 0.328125 9.0625 1.328125 C9.0625 2.318125 9.0625 3.308125 9.0625 4.328125 C2.1325 3.833125 2.1325 3.833125 -4.9375 3.328125 C-1.9375 0.328125 -1.9375 0.328125 0 0 Z " fill="#CE3741" transform="translate(93.9375,3.671875)"/>
<path d="M0 0 C2.91926519 2.63675566 4.09111127 4.23460384 5 8 C5.99 8.33 6.98 8.66 8 9 C8 9.99 8 10.98 8 12 C7.34 12 6.68 12 6 12 C6 11.34 6 10.68 6 10 C5.01 10 4.02 10 3 10 C3 9.34 3 8.68 3 8 C2.01 8 1.02 8 0 8 C0 5.36 0 2.72 0 0 Z " fill="#A23B3C" transform="translate(20,91)"/>
<path d="M0 0 C0.86625 0.3403125 0.86625 0.3403125 1.75 0.6875 C0.1 1.3475 -1.55 2.0075 -3.25 2.6875 C-2.26 3.0175 -1.27 3.3475 -0.25 3.6875 C-0.25 4.6775 -0.25 5.6675 -0.25 6.6875 C-0.91 6.6875 -1.57 6.6875 -2.25 6.6875 C-2.25 7.3475 -2.25 8.0075 -2.25 8.6875 C-3.57 8.0275 -4.89 7.3675 -6.25 6.6875 C-6.25 2.6875 -6.25 2.6875 -4.5 0.875 C-2.25 -0.3125 -2.25 -0.3125 0 0 Z " fill="#BD3F48" transform="translate(90.25,2.3125)"/>
<path d="M0 0 C1.875 0.125 1.875 0.125 4 1 C5.78607932 5.28659036 6.34263245 9.26299664 6.625 13.875 C6.69976562 15.02742188 6.77453125 16.17984375 6.8515625 17.3671875 C6.90054688 18.23601563 6.94953125 19.10484375 7 20 C5.49379352 17.23133001 4.63922691 14.77985475 4.0625 11.6875 C3.1913624 7.47816309 1.81984485 3.88785036 0 0 Z " fill="#B53B3D" transform="translate(112,43)"/>
<path d="M0 0 C0.66 0 1.32 0 2 0 C1.43244703 3.97287078 0.17597408 6.6453733 -2 10 C-2.33 10.66 -2.66 11.32 -3 12 C-3.99 12 -4.98 12 -6 12 C-5.55946315 7.15409462 -3.25494123 3.51858133 0 0 Z " fill="#DC7073" transform="translate(85,30)"/>
<path d="M0 0 C4.2742558 1.5830577 6.26531794 4.50568404 9 8 C8.01 9.485 8.01 9.485 7 11 C4.35247996 8.42215154 2.05567935 6.08351902 0 3 C0 2.01 0 1.02 0 0 Z " fill="#A34D4B" transform="translate(104,26)"/>
<path d="M0 0 C0.33 0.99 0.66 1.98 1 3 C-2.21534094 8.57805154 -6.4149669 12.86693265 -12 16 C-12.66 15.67 -13.32 15.34 -14 15 C-13.24074219 14.33613281 -12.48148437 13.67226562 -11.69921875 12.98828125 C-10.69501036 12.09669436 -9.69112093 11.20474812 -8.6875 10.3125 C-7.70136719 9.44238281 -6.71523437 8.57226562 -5.69921875 7.67578125 C-3.23006042 5.22806279 -1.6131843 3.05569039 0 0 Z " fill="#B45759" transform="translate(105,94)"/>
<path d="M0 0 C5.28 0 10.56 0 16 0 C16.25 8.625 16.25 8.625 14 12 C12.875 5.375 12.875 5.375 14 2 C7.07 1.505 7.07 1.505 0 1 C0 0.67 0 0.34 0 0 Z " fill="#DCCACA" transform="translate(96,70)"/>
<path d="M0 0 C7.32360897 0.27124478 11.9731443 2.96151268 18 7 C17.01 7.495 17.01 7.495 16 8 C15.01 7.67 14.02 7.34 13 7 C12.67 7.66 12.34 8.32 12 9 C11.01 9 10.02 9 9 9 C9 8.34 9 7.68 9 7 C9.66 7 10.32 7 11 7 C11 6.01 11 5.02 11 4 C10.29875 3.87625 9.5975 3.7525 8.875 3.625 C5.82343613 2.96161655 2.94659062 2.02788045 0 1 C0 0.67 0 0.34 0 0 Z " fill="#CAB9BB" transform="translate(75,22)"/>
<path d="M0 0 C1.98 0 3.96 0 6 0 C6 1.32 6 2.64 6 4 C6.99 4.66 7.98 5.32 9 6 C8.11957031 5.98839844 7.23914063 5.97679687 6.33203125 5.96484375 C5.17058594 5.95582031 4.00914063 5.94679688 2.8125 5.9375 C1.66394531 5.92589844 0.51539063 5.91429687 -0.66796875 5.90234375 C-3.59300586 5.98807168 -6.16316291 6.32150977 -9 7 C-8.67 6.34 -8.34 5.68 -8 5 C-6.07421875 4.3671875 -6.07421875 4.3671875 -3.6875 3.875 C-2.90761719 3.70742187 -2.12773438 3.53984375 -1.32421875 3.3671875 C1 3 1 3 5 3 C5 2.34 5 1.68 5 1 C3.35 1 1.7 1 0 1 C0 0.67 0 0.34 0 0 Z " fill="#D05056" transform="translate(57,11)"/>
<path d="M0 0 C0.99 0.33 1.98 0.66 3 1 C1.68 1.33 0.36 1.66 -1 2 C-1 2.66 -1 3.32 -1 4 C-2.57421875 5.18359375 -2.57421875 5.18359375 -4.6875 6.4375 C-5.41324219 6.87320312 -6.13898437 7.30890625 -6.88671875 7.7578125 C-7.58410156 8.16773438 -8.28148437 8.57765625 -9 9 C-10.485 9.8971875 -10.485 9.8971875 -12 10.8125 C-12.66 11.204375 -13.32 11.59625 -14 12 C-13.34 10.02 -12.68 8.04 -12 6 C-11.01 6 -10.02 6 -9 6 C-6.62649186 4.51655741 -4.41107721 2.87214175 -2.15625 1.21484375 C-1.4446875 0.81394531 -0.733125 0.41304687 0 0 Z " fill="#A24B4C" transform="translate(42,23)"/>
<path d="M0 0 C-1.32 0.33 -2.64 0.66 -4 1 C-4 1.66 -4 2.32 -4 3 C-5.28913487 3.67154933 -6.58140204 4.33708859 -7.875 5 C-8.59429687 5.37125 -9.31359375 5.7425 -10.0546875 6.125 C-12 7 -12 7 -14 7 C-12.62697042 3.63820077 -11.38114791 2.2787119 -8.125 0.6875 C-7.44695313 0.34074219 -6.76890625 -0.00601562 -6.0703125 -0.36328125 C-3.64262754 -1.10990889 -2.36734455 -0.82273185 0 0 Z " fill="#9B1D1C" transform="translate(45,17)"/>
<path d="M0 0 C1.32 0.66 2.64 1.32 4 2 C3.875 4.25 3.875 4.25 3 7 C0.41649868 8.97885207 -2.09529743 10.54764872 -5 12 C-5.33 11.01 -5.66 10.02 -6 9 C-5.01 9 -4.02 9 -3 9 C-3 8.34 -3 7.68 -3 7 C-2.34 7 -1.68 7 -1 7 C-0.67 4.69 -0.34 2.38 0 0 Z " fill="#A0414A" transform="translate(41,3)"/>
<path d="M0 0 C1.25541557 3.76624671 0.37061958 5.37188934 -1 9 C-2.32 9 -3.64 9 -5 9 C-5 8.34 -5 7.68 -5 7 C-5.99 6.67 -6.98 6.34 -8 6 C-7.01 6 -6.02 6 -5 6 C-5 5.01 -5 4.02 -5 3 C-3.68 3 -2.36 3 -1 3 C-0.67 2.01 -0.34 1.02 0 0 Z " fill="#CFC6C7" transform="translate(109,82)"/>
<path d="M0 0 C1 3 1 3 -0.3125 5.6875 C-0.869375 6.450625 -1.42625 7.21375 -2 8 C-2.66 8 -3.32 8 -4 8 C-4.28875 8.804375 -4.5775 9.60875 -4.875 10.4375 C-6 13 -6 13 -8 14 C-8 12.35 -8 10.7 -8 9 C-6.68 8.34 -5.36 7.68 -4 7 C-4 6.01 -4 5.02 -4 4 C-2 1.8125 -2 1.8125 0 0 Z " fill="#980D0E" transform="translate(24,28)"/>
<path d="M0 0 C-2.31 2.31 -4.62 4.62 -7 7 C-7.66 6.67 -8.32 6.34 -9 6 C-9 4.35 -9 2.7 -9 1 C-3.375 -1.125 -3.375 -1.125 0 0 Z " fill="#701616" transform="translate(16,32)"/>
<path d="M0 0 C1.46224799 0.42423244 2.91973412 0.86490245 4.375 1.3125 C5.18710938 1.55613281 5.99921875 1.79976562 6.8359375 2.05078125 C9 3 9 3 11 6 C5.76824163 6.38281159 2.62197306 5.21854707 -2 3 C-1.34 2.67 -0.68 2.34 0 2 C0 1.34 0 0.68 0 0 Z " fill="#B7555B" transform="translate(82,12)"/>
<path d="M0 0 C0 0.66 0 1.32 0 2 C-4.64849515 4.3992233 -8.91086074 4.19957409 -14 4 C-13.67 3.34 -13.34 2.68 -13 2 C-8.55499776 0.66649933 -4.6681169 -0.29175731 0 0 Z " fill="#871914" transform="translate(84,116)"/>
<path d="M0 0 C1.32 0 2.64 0 4 0 C4 0.66 4 1.32 4 2 C4.99 2 5.98 2 7 2 C7 2.66 7 3.32 7 4 C9.97 4.495 9.97 4.495 13 5 C12.67 5.66 12.34 6.32 12 7 C10.35 7 8.7 7 7 7 C7 6.34 7 5.68 7 5 C6.401875 4.9175 5.80375 4.835 5.1875 4.75 C2.4033704 3.79544128 1.56688858 2.42867729 0 0 Z " fill="#CECCCC" transform="translate(29,99)"/>
<path d="M0 0 C1.31872662 0.39651917 2.62997101 0.81798691 3.9375 1.25 C4.66839844 1.48203125 5.39929687 1.7140625 6.15234375 1.953125 C8 3 8 3 8.75390625 5.109375 C8.83511719 5.73328125 8.91632812 6.3571875 9 7 C5.59687262 5.94124926 2.98646769 4.99097846 0 3 C0 2.01 0 1.02 0 0 Z " fill="#DE8182" transform="translate(28,47)"/>
<path d="M0 0 C-5.625 3 -5.625 3 -9 3 C-9.66 4.32 -10.32 5.64 -11 7 C-11.99 6.67 -12.98 6.34 -14 6 C-14 5.34 -14 4.68 -14 4 C-13.01 4 -12.02 4 -11 4 C-11 3.01 -11 2.02 -11 1 C-3.57142857 -1.42857143 -3.57142857 -1.42857143 0 0 Z " fill="#D3CFCE" transform="translate(56,22)"/>
<path d="M0 0 C2.1875 0.3125 2.1875 0.3125 4 1 C0.84442256 5.67025461 -1.8641579 7.12344231 -7 9 C-7 8.01 -7 7.02 -7 6 C-5.68 5.67 -4.36 5.34 -3 5 C-3 4.34 -3 3.68 -3 3 C-1.75 1.3125 -1.75 1.3125 0 0 Z " fill="#BB2E32" transform="translate(44,15)"/>
<path d="M0 0 C1.32 0.33 2.64 0.66 4 1 C-0.48074195 4.36055646 -3.60550707 4.27429625 -9 4 C-9.33 4.66 -9.66 5.32 -10 6 C-9.67 4.68 -9.34 3.36 -9 2 C-2.25 0.875 -2.25 0.875 0 2 C0 1.34 0 0.68 0 0 Z " fill="#CDCDCD" transform="translate(76,110)"/>
<path d="M0 0 C0.33 0 0.66 0 1 0 C1.20413361 5.73842251 1.27141454 10.60539047 -1 16 C-3.24407571 12.48789638 -3.01857695 10.32847827 -2.1875 6.3125 C-1.89939453 4.85263672 -1.89939453 4.85263672 -1.60546875 3.36328125 C-1 1 -1 1 0 0 Z " fill="#982E29" transform="translate(119,72)"/>
<path d="M0 0 C0.33 0 0.66 0 1 0 C0.64989059 9.17286652 0.64989059 9.17286652 -2.0625 12.625 C-2.701875 13.07875 -3.34125 13.5325 -4 14 C-4 11 -4 11 -3 10 C-2.63239269 7.67182036 -2.29758419 5.3381615 -2 3 C-2.66 2.67 -3.32 2.34 -4 2 C-3.01 2 -2.02 2 -1 2 C-0.67 1.34 -0.34 0.68 0 0 Z " fill="#914B49" transform="translate(125,26)"/>
<path d="M0 0 C0.33 0 0.66 0 1 0 C1.2396943 5.63281599 0.38529821 10.54538831 -1 16 C-3.31323995 12.53014008 -3.03975162 11.01711296 -2.42578125 7.0078125 C-1.89999623 4.52842261 -1.07459989 2.29247976 0 0 Z " fill="#B5595A" transform="translate(9,45)"/>
<path d="M0 0 C1.37095624 3.69037278 0.60010967 5.70883835 -0.9375 9.25 C-1.31777344 10.14203125 -1.69804688 11.0340625 -2.08984375 11.953125 C-2.39019531 12.62859375 -2.69054687 13.3040625 -3 14 C-4.07735006 10.76794982 -3.92640423 9.66422565 -3.1875 6.4375 C-3.01605469 5.65246094 -2.84460938 4.86742188 -2.66796875 4.05859375 C-2 2 -2 2 0 0 Z " fill="#96231F" transform="translate(115,78)"/>
<path d="M0 0 C2 1 2 1 2.81640625 3.14453125 C3.06261719 4.02496094 3.30882812 4.90539062 3.5625 5.8125 C3.81128906 6.68519531 4.06007813 7.55789062 4.31640625 8.45703125 C4.90134027 10.63298581 5.46434428 12.81146376 6 15 C5.01 15 4.02 15 3 15 C1.08373163 10.01770224 0.4452885 5.27315333 0 0 Z " fill="#8F191B" transform="translate(9,78)"/>
<path d="M0 0 C0.33 0.66 0.66 1.32 1 2 C1.66 2 2.32 2 3 2 C3.33 6.29 3.66 10.58 4 15 C1.73625389 12.73625389 1.51648574 11.68987631 0.875 8.625 C0.70742187 7.85414062 0.53984375 7.08328125 0.3671875 6.2890625 C0 4 0 4 0 0 Z " fill="#B32726" transform="translate(11,67)"/>
<path d="M0 0 C4.92307692 4.18461538 4.92307692 4.18461538 5.3125 8.3125 C5.209375 9.199375 5.10625 10.08625 5 11 C4.67 10.34 4.34 9.68 4 9 C3.01 8.67 2.02 8.34 1 8 C0.67 5.36 0.34 2.72 0 0 Z " fill="#BA6166" transform="translate(112,35)"/>
<path d="M0 0 C2 0 2 0 3.625 1.3125 C5 3 5 3 5 6 C2.64561267 7.42944945 1.51967567 8.08661261 -1.25 7.625 C-1.8275 7.41875 -2.405 7.2125 -3 7 C-1.68 6.67 -0.36 6.34 1 6 C0.67 4.02 0.34 2.04 0 0 Z " fill="#B6686A" transform="translate(86,106)"/>
<path d="M0 0 C2.97 0.495 2.97 0.495 6 1 C6 1.66 6 2.32 6 3 C7.32 3 8.64 3 10 3 C10 4.32 10 5.64 10 7 C7.525 6.01 7.525 6.01 5 5 C5 4.34 5 3.68 5 3 C4.360625 2.87625 3.72125 2.7525 3.0625 2.625 C2.381875 2.41875 1.70125 2.2125 1 2 C0.67 1.34 0.34 0.68 0 0 Z " fill="#B8ADAD" transform="translate(30,103)"/>
<path d="M0 0 C3.3 0.33 6.6 0.66 10 1 C6 4 6 4 3 4 C3 4.66 3 5.32 3 6 C2.34 6 1.68 6 1 6 C0.67 4.02 0.34 2.04 0 0 Z " fill="#DBD2D2" transform="translate(21,85)"/>
<path d="M0 0 C1.32 1.32 2.64 2.64 4 4 C3.67 4.66 3.34 5.32 3 6 C-0.55824425 6 -3.57015811 5.94616328 -7 5 C-6.401875 4.731875 -5.80375 4.46375 -5.1875 4.1875 C-3.02775192 3.01506533 -1.64209744 1.80630718 0 0 Z " fill="#CEA6AA" transform="translate(104,42)"/>
<path d="M0 0 C0.66 0 1.32 0 2 0 C2 1.32 2 2.64 2 4 C4.64 4 7.28 4 10 4 C10 4.33 10 4.66 10 5 C9.07767578 5.09087891 9.07767578 5.09087891 8.13671875 5.18359375 C7.32847656 5.26738281 6.52023437 5.35117187 5.6875 5.4375 C4.88699219 5.51871094 4.08648437 5.59992187 3.26171875 5.68359375 C0.83912821 5.95265693 0.83912821 5.95265693 -2 7 C-1.125 1.125 -1.125 1.125 0 0 Z " fill="#E96766" transform="translate(9,20)"/>
<path d="M0 0 C2.00720923 0.28674418 4.0085944 0.61866701 6 1 C5.25 2.9375 5.25 2.9375 4 5 C1.875 5.75 1.875 5.75 0 6 C-0.38218767 4.34385343 -0.71395102 2.67542976 -1 1 C-0.67 0.67 -0.34 0.34 0 0 Z " fill="#BB929C" transform="translate(11,5)"/>
<path d="M0 0 C6.71700347 -0.31985731 11.75726932 0.5206176 18 3 C18 3.99 18 4.98 18 6 C16.0625 5.625 16.0625 5.625 14 5 C13.67 4.34 13.34 3.68 13 3 C9.9600352 2.30662208 9.9600352 2.30662208 6.4375 1.875 C4.64119141 1.62363281 4.64119141 1.62363281 2.80859375 1.3671875 C1.88175781 1.24601563 0.95492187 1.12484375 0 1 C0 0.67 0 0.34 0 0 Z " fill="#B2535C" transform="translate(92,1)"/>
<path d="M0 0 C4.75 0.875 4.75 0.875 7 2 C7.33 1.34 7.66 0.68 8 0 C7.67 1.65 7.34 3.3 7 5 C5.35 5 3.7 5 2 5 C1.34 3.35 0.68 1.7 0 0 Z " fill="#645F61" transform="translate(106,122)"/>
<path d="M0 0 C1.65 0 3.3 0 5 0 C5 0.66 5 1.32 5 2 C6.32 2.33 7.64 2.66 9 3 C6.6875 4.5625 6.6875 4.5625 4 6 C3.01 5.67 2.02 5.34 1 5 C1.99 4.67 2.98 4.34 4 4 C4 3.34 4 2.68 4 2 C2.35 2 0.7 2 -1 2 C-0.67 1.34 -0.34 0.68 0 0 Z " fill="#9C3739" transform="translate(80,114)"/>
<path d="M0 0 C2.64 0.33 5.28 0.66 8 1 C8.12375 1.804375 8.2475 2.60875 8.375 3.4375 C8.58125 4.283125 8.7875 5.12875 9 6 C9.66 6.33 10.32 6.66 11 7 C11 7.66 11 8.32 11 9 C7.6092481 7.54682061 5.58699688 5.58699688 3 3 C2.01 2.67 1.02 2.34 0 2 C0 1.34 0 0.68 0 0 Z " fill="#711E1D" transform="translate(109,29)"/>
<path d="M0 0 C3.875 1.875 3.875 1.875 5 3 C5.14115161 5.67058851 5.04247107 8.32432238 5 11 C2.16439414 9.58219707 2.00641321 7.95214542 1 5 C0.63128912 3.34080104 0.28718326 1.6752357 0 0 Z " fill="#C15D5E" transform="translate(120,18)"/>
<path d="M0 0 C3.96 0 7.92 0 12 0 C9 3 9 3 5.8125 3.1875 C4.4203125 3.0946875 4.4203125 3.0946875 3 3 C3 2.34 3 1.68 3 1 C2.01 0.67 1.02 0.34 0 0 Z " fill="#9A4F4E" transform="translate(58,125)"/>
<path d="M0 0 C-4.10457614 2.98514628 -6.97745369 3.2954439 -12 3 C-8.66305069 -1.03946495 -4.8800129 -1.62667097 0 0 Z " fill="#BEB0AD" transform="translate(84,113)"/>
<path d="M0 0 C0.66 0 1.32 0 2 0 C1.125 5.75 1.125 5.75 0 8 C-0.99 8 -1.98 8 -3 8 C-2.25 2.25 -2.25 2.25 0 0 Z " fill="#D96B6C" transform="translate(47,95)"/>
<path d="M0 0 C-0.66 0 -1.32 0 -2 0 C-2.33 0.99 -2.66 1.98 -3 3 C-6.3 2.67 -9.6 2.34 -13 2 C-12.67 1.34 -12.34 0.68 -12 0 C-10.0390625 -0.44921875 -10.0390625 -0.44921875 -7.625 -0.6875 C-6.43777344 -0.81705078 -6.43777344 -0.81705078 -5.2265625 -0.94921875 C-3 -1 -3 -1 0 0 Z " fill="#C23635" transform="translate(22,25)"/>
<path d="M0 0 C2.92879371 0.62759865 5.36095629 1.58622659 8 3 C7.67 4.65 7.34 6.3 7 8 C6.01 8 5.02 8 4 8 C4 6.35 4 4.7 4 3 C2.68 2.34 1.36 1.68 0 1 C0 0.67 0 0.34 0 0 Z " fill="#9C6A6E" transform="translate(93,19)"/>
<path d="M0 0 C1.65 0 3.3 0 5 0 C5.66 1.32 6.32 2.64 7 4 C4.69 4.33 2.38 4.66 0 5 C0 3.35 0 1.7 0 0 Z " fill="#CE4946" transform="translate(7,61)"/>
<path d="M0 0 C7.75 0.75 7.75 0.75 10 3 C9.67 3.99 9.34 4.98 9 6 C6.03 4.35 3.06 2.7 0 1 C0 0.67 0 0.34 0 0 Z " fill="#A6464C" transform="translate(83,23)"/>
<path d="M0 0 C6.35714286 0.48901099 6.35714286 0.48901099 9.4375 2.9375 C11 5 11 5 11 7 C7.22272911 5.18690997 3.62730178 3.0926741 0 1 C0 0.67 0 0.34 0 0 Z " fill="#B3191A" transform="translate(84,20)"/>
<path d="M0 0 C0.66 0 1.32 0 2 0 C2 0.66 2 1.32 2 2 C2.66 2 3.32 2 4 2 C4 2.99 4 3.98 4 5 C4.99 5.33 5.98 5.66 7 6 C6.01 7.485 6.01 7.485 5 9 C5 8.34 5 7.68 5 7 C4.360625 6.773125 3.72125 6.54625 3.0625 6.3125 C1 5 1 5 0.25 2.375 C0.1675 1.59125 0.085 0.8075 0 0 Z " fill="#9B5758" transform="translate(18,103)"/>
<path d="M0 0 C0 0.66 0 1.32 0 2 C-2.90600261 3.25664978 -4.79604584 4 -8 4 C-7.6875 2.0625 -7.6875 2.0625 -7 0 C-3.86650268 -1.04449911 -3.01031744 -0.93423645 0 0 Z " fill="#D58E8D" transform="translate(31,89)"/>
<path d="M0 0 C0.99 0.33 1.98 0.66 3 1 C2 4 2 4 0.1875 5.3125 C-2 6 -2 6 -4.25 5.125 C-4.8275 4.75375 -5.405 4.3825 -6 4 C-3.1875 1.9375 -3.1875 1.9375 0 0 Z " fill="#6A686A" transform="translate(93,45)"/>
<path d="M0 0 C1.98 0 3.96 0 6 0 C5.01 0.495 5.01 0.495 4 1 C4 1.66 4 2.32 4 3 C5.65 3.33 7.3 3.66 9 4 C9 4.33 9 4.66 9 5 C5.625 5.125 5.625 5.125 2 5 C1.34 4.34 0.68 3.68 0 3 C0 2.01 0 1.02 0 0 Z " fill="#BF3036" transform="translate(78,15)"/>
<path d="M0 0 C-0.33 1.32 -0.66 2.64 -1 4 C-2.98 4 -4.96 4 -7 4 C-6.67 3.01 -6.34 2.02 -6 1 C-4 0 -4 0 0 0 Z " fill="#FDA3A1" transform="translate(18,20)"/>
<path d="M0 0 C0 0.99 0 1.98 0 3 C-3.13498292 4.85776765 -5.37471432 5.20140476 -9 5 C-6.6475912 1.47138681 -4.32053307 0 0 0 Z " fill="#B55559" transform="translate(44,13)"/>
<path d="M0 0 C1.9375 0.75 1.9375 0.75 4 2 C4.875 4 4.875 4 5 6 C4.34 6.66 3.68 7.32 3 8 C0.37613513 4.93882432 0 4.26826873 0 0 Z " fill="#ABB5C5" transform="translate(100,108)"/>
<path d="M0 0 C3.80984844 2.77079887 4.06840752 6.62868145 5 11 C4.34 11 3.68 11 3 11 C0.84694043 7.14243493 -0.39253254 4.44870215 0 0 Z " fill="#AA5F60" transform="translate(8,84)"/>
<path d="M0 0 C0.33 0.66 0.66 1.32 1 2 C1.66 2.33 2.32 2.66 3 3 C2.360625 3.268125 1.72125 3.53625 1.0625 3.8125 C-1.33131686 4.88667752 -1.33131686 4.88667752 -2 8 C-3.32 7.67 -4.64 7.34 -6 7 C-5 4 -5 4 -3 2.9375 C-2.34 2.628125 -1.68 2.31875 -1 2 C-0.67 1.34 -0.34 0.68 0 0 Z " fill="#8A7E6D" transform="translate(68,63)"/>
<path d="M0 0 C3.14958831 3.42346555 3.56179109 6.44262737 4 11 C2 10 2 10 0 8 C-0.36933645 5.24627091 -0.18336678 2.79634339 0 0 Z " fill="#9B5857" transform="translate(117,42)"/>
<path d="M0 0 C1.98 0 3.96 0 6 0 C6.28875 0.969375 6.5775 1.93875 6.875 2.9375 C7.64214682 6.10664203 7.64214682 6.10664203 10 7 C9.67 7.99 9.34 8.98 9 10 C8.67 9.34 8.34 8.68 8 8 C7.01 7.67 6.02 7.34 5 7 C5 5.02 5 3.04 5 1 C3.35 1 1.7 1 0 1 C0 0.67 0 0.34 0 0 Z " fill="#942522" transform="translate(112,28)"/>
<path d="M0 0 C0.33 0.99 0.66 1.98 1 3 C0.01 4.485 0.01 4.485 -1 6 C-1.66 6 -2.32 6 -3 6 C-3.33 6.99 -3.66 7.98 -4 9 C-4.25 6.1875 -4.25 6.1875 -4 3 C-2 1.125 -2 1.125 0 0 Z " fill="#9D393A" transform="translate(23,26)"/>
<path d="M0 0 C1.32 0 2.64 0 4 0 C3.6875 1.875 3.6875 1.875 3 4 C2.01 4.66 1.02 5.32 0 6 C-0.66 4.68 -1.32 3.36 -2 2 C-1.34 2 -0.68 2 0 2 C0 1.34 0 0.68 0 0 Z " fill="#898A8D" transform="translate(96,42)"/>
<path d="M0 0 C0.66 0 1.32 0 2 0 C2 0.66 2 1.32 2 2 C2.928125 2.37125 2.928125 2.37125 3.875 2.75 C6.35068687 4.20628639 6.95125002 5.37812506 8 8 C5.525 7.01 5.525 7.01 3 6 C3 5.01 3 4.02 3 3 C2.01 2.67 1.02 2.34 0 2 C0 1.34 0 0.68 0 0 Z " fill="#B5303A" transform="translate(96,29)"/>
<path d="M0 0 C0.66 0 1.32 0 2 0 C2.53012738 1.28788008 3.0488329 2.58046678 3.5625 3.875 C3.99755859 4.95394531 3.99755859 4.95394531 4.44140625 6.0546875 C5 8 5 8 4 10 C1.7448078 7.7448078 1.02276532 5.9952413 0 3 C0 2.01 0 1.02 0 0 Z " fill="#C6BCBA" transform="translate(18,83)"/>
<path d="M0 0 C0.433125 0.639375 0.86625 1.27875 1.3125 1.9375 C2.91239177 4.26746003 2.91239177 4.26746003 6 5 C6 5.66 6 6.32 6 7 C6.66 7.33 7.32 7.66 8 8 C3.68607774 7.5206753 1.83430453 6.2542015 -1 3 C-0.67 2.01 -0.34 1.02 0 0 Z " fill="#BEBEBE" transform="translate(42,54)"/>
<path d="M0 0 C1.9375 0.6875 1.9375 0.6875 4 2 C4.75 4.625 4.75 4.625 5 7 C3.0625 6.3125 3.0625 6.3125 1 5 C0.25 2.375 0.25 2.375 0 0 Z " fill="#DA7071" transform="translate(44,35)"/>
<path d="M0 0 C0.66 0 1.32 0 2 0 C2 0.66 2 1.32 2 2 C2.66 2.33 3.32 2.66 4 3 C3.01 4.485 3.01 4.485 2 6 C1.01 5.67 0.02 5.34 -1 5 C-0.67 3.35 -0.34 1.7 0 0 Z " fill="#5A3231" transform="translate(101,23)"/>
<path d="M0 0 C0.99 0.66 1.98 1.32 3 2 C3 2.66 3 3.32 3 4 C2.01 4 1.02 4 0 4 C0.33 5.32 0.66 6.64 1 8 C0.34 8 -0.32 8 -1 8 C-1.93065133 5.39417629 -2.14917407 4.35801776 -1.0625 1.75 C-0.711875 1.1725 -0.36125 0.595 0 0 Z " fill="#8F949F" transform="translate(105,112)"/>
<path d="M0 0 C-0.33 0.99 -0.66 1.98 -1 3 C-2.98 3 -4.96 3 -7 3 C-7 2.34 -7 1.68 -7 1 C-3.375 -1.125 -3.375 -1.125 0 0 Z " fill="#892A2D" transform="translate(97,113)"/>
<path d="M0 0 C4.875 4.5 4.875 4.5 6 9 C3.69 7.02 1.38 5.04 -1 3 C-0.67 2.01 -0.34 1.02 0 0 Z " fill="#880707" transform="translate(103,28)"/>
<path d="M0 0 C1.32 0.66 2.64 1.32 4 2 C4 2.99 4 3.98 4 5 C2.68 5 1.36 5 0 5 C-0.5625 3.0625 -0.5625 3.0625 -1 1 C-0.67 0.67 -0.34 0.34 0 0 Z " fill="#7F656F" transform="translate(28,22)"/>
<path d="M0 0 C0.8971875 0.309375 0.8971875 0.309375 1.8125 0.625 C0.6059375 1.0271875 0.6059375 1.0271875 -0.625 1.4375 C-1.470625 1.829375 -2.31625 2.22125 -3.1875 2.625 C-3.5175 3.615 -3.8475 4.605 -4.1875 5.625 C-5.1775 5.625 -6.1675 5.625 -7.1875 5.625 C-5.69046729 2.17030914 -4.27938051 -0.73360809 0 0 Z " fill="#B9585C" transform="translate(90.1875,2.375)"/>
<path d="M0 0 C-0.33 1.65 -0.66 3.3 -1 5 C-1.99 5.33 -2.98 5.66 -4 6 C-4 4.35 -4 2.7 -4 1 C-2 0 -2 0 0 0 Z " fill="#D3D2D5" transform="translate(104,40)"/>
<path d="M0 0 C0.75 1.6875 0.75 1.6875 1 4 C-0.9375 6.75 -0.9375 6.75 -3 9 C-3.75 7.3125 -3.75 7.3125 -4 5 C-2.0625 2.25 -2.0625 2.25 0 0 Z " fill="#B14F4E" transform="translate(18,31)"/>
<path d="M0 0 C0.66 0 1.32 0 2 0 C1.67 1.65 1.34 3.3 1 5 C-0.32 5.33 -1.64 5.66 -3 6 C-1.125 1.125 -1.125 1.125 0 0 Z " fill="#DD8D90" transform="translate(85,30)"/>
<path d="M0 0 C0.66 0.33 1.32 0.66 2 1 C1.34 2.65 0.68 4.3 0 6 C-0.99 5.67 -1.98 5.34 -3 5 C-3.33 5.66 -3.66 6.32 -4 7 C-4 4 -4 4 -2 1.8125 C-1.34 1.214375 -0.68 0.61625 0 0 Z " fill="#D35E61" transform="translate(28,31)"/>
<path d="M0 0 C1.65 0.33 3.3 0.66 5 1 C3.49336217 4.01327566 0.96833589 4.61056618 -2 6 C-1.34 4.02 -0.68 2.04 0 0 Z " fill="#DAD5D8" transform="translate(88,29)"/>
<path d="M0 0 C1.98 0.99 1.98 0.99 4 2 C4 3.65 4 5.3 4 7 C2 5.1875 2 5.1875 0 3 C0 2.01 0 1.02 0 0 Z " fill="#9C393A" transform="translate(104,26)"/>
<path d="M0 0 C2 2 2 2 2 6 C0.0625 5.6875 0.0625 5.6875 -2 5 C-2.33 4.01 -2.66 3.02 -3 2 C-2.01 2 -1.02 2 0 2 C0 1.34 0 0.68 0 0 Z " fill="#572A2D" transform="translate(26,23)"/>
<path d="M0 0 C3.34373475 0.55728913 6.03312999 1.35173889 9 3 C6.21176345 4.0326802 5.1322726 4.04509293 2.25 3.0625 C1.5075 2.711875 0.765 2.36125 0 2 C0 1.34 0 0.68 0 0 Z " fill="#9F1110" transform="translate(82,16)"/>
<path d="M0 0 C0.99 0.33 1.98 0.66 3 1 C0.69 2.65 -1.62 4.3 -4 6 C-4.66 5.67 -5.32 5.34 -6 5 C-1.60546875 0.99609375 -1.60546875 0.99609375 0 0 Z " fill="#B14B4D" transform="translate(97,104)"/>
<path d="M0 0 C1.5625 1.25 1.5625 1.25 3 3 C2.6875 5.1875 2.6875 5.1875 2 7 C1.34 7 0.68 7 0 7 C-1.125 2.25 -1.125 2.25 0 0 Z " fill="#D07677" transform="translate(84,101)"/>
<path d="M0 0 C2.475 0.99 2.475 0.99 5 2 C5 2.66 5 3.32 5 4 C3.35 4.66 1.7 5.32 0 6 C0 4.02 0 2.04 0 0 Z " fill="#CDC4C4" transform="translate(100,91)"/>
<path d="M0 0 C2.52588702 2.36292656 3.88820837 3.66462511 5 7 C4.01 7 3.02 7 2 7 C0 4 0 4 0 0 Z " fill="#874B4B" transform="translate(3,32)"/>
<path d="M0 0 C-1.32 0.33 -2.64 0.66 -4 1 C-4 1.66 -4 2.32 -4 3 C-5.65 3.66 -7.3 4.32 -9 5 C-8.00233891 2.50584728 -7.31383315 1.21259665 -5.0625 -0.3125 C-3 -1 -3 -1 0 0 Z " fill="#A05257" transform="translate(45,24)"/>
</svg>
